<svg xmlns="http://www.w3.org/2000/svg" xmlns:xlink="http://www.w3.org/1999/xlink" contentStyleType="text/css" data-diagram-type="DESCRIPTION" height="653px" preserveAspectRatio="none" style="width:1210px;height:653px;background:#FFFFFF;" version="1.1" viewBox="0 0 1210 653" width="1210px" zoomAndPan="magnify"><title>Professional Portfolio - Functionality Flow</title><defs/><g><g class="title" data-source-line="1"><text fill="#000000" font-family="sans-serif" font-size="14" font-weight="bold" lengthAdjust="spacing" textLength="305.9834" x="445.0083" y="23.5352">Professional Portfolio - Functionality Flow</text></g><!--cluster FE--><g class="cluster" data-entity="FE" data-source-line="18" data-uid="ent0003" id="cluster_FE"><rect fill="#E3F2FD" height="86.32" rx="2.5" ry="2.5" style="stroke:#444444;stroke-width:1;" width="937" x="7" y="174.4783"/><text fill="#000000" font-family="sans-serif" font-size="14" font-weight="bold" lengthAdjust="spacing" textLength="127.5791" x="411.7104" y="190.0134">Frontend (Flutter)</text></g><!--cluster SVC--><g class="cluster" data-entity="SVC" data-source-line="27" data-uid="ent0014" id="cluster_SVC"><rect fill="#E8F5E9" height="81.48" rx="2.5" ry="2.5" style="stroke:#444444;stroke-width:1;" width="848" x="67" y="299.7983"/><text fill="#000000" font-family="sans-serif" font-size="14" font-weight="bold" lengthAdjust="spacing" textLength="255.5889" x="363.2056" y="315.3334">Application Services (Dart Services)</text></g><!--cluster LOGIC--><g class="cluster" data-entity="LOGIC" data-source-line="36" data-uid="ent0025" id="cluster_LOGIC"><rect fill="#FFF3E0" height="92.97" rx="2.5" ry="2.5" style="stroke:#444444;stroke-width:1;" width="1186" x="18" y="420.2783"/><text fill="#000000" font-family="sans-serif" font-size="14" font-weight="bold" lengthAdjust="spacing" textLength="98.5332" x="561.7334" y="435.8134">Domain Logic</text></g><!--cluster DB--><g class="cluster" data-entity="DB" data-source-line="46" data-uid="ent0038" id="cluster_DB"><path d="M148,547.2483 C148,537.2483 588.5,537.2483 588.5,537.2483 C588.5,537.2483 1029,537.2483 1029,547.2483 L1029,626.2983 C1029,636.2983 588.5,636.2983 588.5,636.2983 C588.5,636.2983 148,636.2983 148,626.2983 L148,547.2483" fill="#E0F7FA" style="stroke:#181818;stroke-width:1;"/><path d="M148,547.2483 C148,557.2483 588.5,557.2483 588.5,557.2483 C588.5,557.2483 1029,557.2483 1029,547.2483" fill="none" style="stroke:#181818;stroke-width:1;"/><text fill="#000000" font-family="sans-serif" font-size="14" font-weight="bold" lengthAdjust="spacing" textLength="150.1787" x="513.4106" y="572.7834">Database (Supabase)</text></g><!--entity Login / Register--><g class="entity" data-entity="Login . Register" data-source-line="19" data-uid="ent0004" id="entity_Login . Register"><ellipse cx="93.9971" cy="227.1397" fill="#F1F1F1" rx="71.3571" ry="16.6714" style="stroke:#181818;stroke-width:0.5;"/><text fill="#000000" font-family="sans-serif" font-size="14" lengthAdjust="spacing" textLength="109.0605" x="39.4669" y="231.8838">Login / Register</text></g><!--entity View / Edit Profile--><g class="entity" data-entity="View . Edit Profile" data-source-line="20" data-uid="ent0006" id="entity_View . Edit Profile"><ellipse cx="292.0039" cy="227.1371" fill="#F1F1F1" rx="76.2939" ry="17.6588" style="stroke:#181818;stroke-width:0.5;"/><text fill="#000000" font-family="sans-serif" font-size="14" lengthAdjust="spacing" textLength="121.208" x="231.3999" y="231.8812">View / Edit Profile</text></g><!--entity Swipe on Profiles--><g class="entity" data-entity="Swipe on Profiles" data-source-line="21" data-uid="ent0008" id="entity_Swipe on Profiles"><ellipse cx="492.0021" cy="227.1387" fill="#F1F1F1" rx="73.9021" ry="17.1804" style="stroke:#181818;stroke-width:0.5;"/><text fill="#000000" font-family="sans-serif" font-size="14" lengthAdjust="spacing" textLength="115.377" x="434.3136" y="231.8828">Swipe on Profiles</text></g><!--entity View Matches--><g class="entity" data-entity="View Matches" data-source-line="22" data-uid="ent0010" id="entity_View Matches"><ellipse cx="681.0014" cy="227.1346" fill="#F1F1F1" rx="64.7814" ry="15.3563" style="stroke:#181818;stroke-width:0.5;"/><text fill="#000000" font-family="sans-serif" font-size="14" lengthAdjust="spacing" textLength="92.0391" x="634.9819" y="231.8787">View Matches</text></g><!--entity Send Message--><g class="entity" data-entity="Send Message" data-source-line="23" data-uid="ent0012" id="entity_Send Message"><ellipse cx="862.0023" cy="227.1368" fill="#F1F1F1" rx="66.1423" ry="15.6285" style="stroke:#181818;stroke-width:0.5;"/><text fill="#000000" font-family="sans-serif" font-size="14" lengthAdjust="spacing" textLength="95.6621" x="814.1713" y="231.8809">Send Message</text></g><!--entity AuthService--><g class="entity" data-entity="AuthService" data-source-line="28" data-uid="ent0015" id="entity_AuthService"><ellipse cx="141.9989" cy="350.0373" fill="#F1F1F1" rx="59.2889" ry="14.659" style="stroke:#181818;stroke-width:0.5;"/><text fill="#000000" font-family="sans-serif" font-size="14" lengthAdjust="spacing" textLength="79.6045" x="102.1966" y="354.7814">AuthService</text></g><!--entity ProfileService--><g class="entity" data-entity="ProfileService" data-source-line="29" data-uid="ent0017" id="entity_ProfileService"><ellipse cx="314.998" cy="350.0359" fill="#F1F1F1" rx="64.188" ry="15.2376" style="stroke:#181818;stroke-width:0.5;"/><text fill="#000000" font-family="sans-serif" font-size="14" lengthAdjust="spacing" textLength="90.4395" x="269.7783" y="354.78">ProfileService</text></g><!--entity SwipeService--><g class="entity" data-entity="SwipeService" data-source-line="30" data-uid="ent0019" id="entity_SwipeService"><ellipse cx="492.001" cy="350.0345" fill="#F1F1F1" rx="62.681" ry="14.9362" style="stroke:#181818;stroke-width:0.5;"/><text fill="#000000" font-family="sans-serif" font-size="14" lengthAdjust="spacing" textLength="86.3174" x="448.8423" y="354.7786">SwipeService</text></g><!--entity MatchService--><g class="entity" data-entity="MatchService" data-source-line="31" data-uid="ent0021" id="entity_MatchService"><ellipse cx="668.0017" cy="350.0426" fill="#F1F1F1" rx="63.3717" ry="15.0743" style="stroke:#181818;stroke-width:0.5;"/><text fill="#000000" font-family="sans-serif" font-size="14" lengthAdjust="spacing" textLength="88.2178" x="623.8928" y="354.7868">MatchService</text></g><!--entity ChatService--><g class="entity" data-entity="ChatService" data-source-line="32" data-uid="ent0023" id="entity_ChatService"><ellipse cx="840.0015" cy="350.0373" fill="#F1F1F1" rx="58.6315" ry="14.659" style="stroke:#181818;stroke-width:0.5;"/><text fill="#000000" font-family="sans-serif" font-size="14" lengthAdjust="spacing" textLength="78.6748" x="800.6641" y="354.7814">ChatService</text></g><!--entity Validate Credentials--><g class="entity" data-entity="Validate Credentials" data-source-line="37" data-uid="ent0026" id="entity_Validate Credentials"><ellipse cx="116.0001" cy="476.2563" fill="#F1F1F1" rx="82.3901" ry="18.878" style="stroke:#181818;stroke-width:0.5;"/><text fill="#000000" font-family="sans-serif" font-size="14" lengthAdjust="spacing" textLength="135.7002" x="48.15" y="481.0004">Validate Credentials</text></g><!--entity Apply Edits--><g class="entity" data-entity="Apply Edits" data-source-line="38" data-uid="ent0028" id="entity_Apply Edits"><ellipse cx="305.0042" cy="476.2573" fill="#F1F1F1" rx="56.6642" ry="14.659" style="stroke:#181818;stroke-width:0.5;"/><text fill="#000000" font-family="sans-serif" font-size="14" lengthAdjust="spacing" textLength="75.8926" x="267.0579" y="481.0014">Apply Edits</text></g><!--entity Record Swipe--><g class="entity" data-entity="Record Swipe" data-source-line="39" data-uid="ent0030" id="entity_Record Swipe"><ellipse cx="475.9953" cy="476.2613" fill="#F1F1F1" rx="64.1653" ry="15.2331" style="stroke:#181818;stroke-width:0.5;"/><text fill="#000000" font-family="sans-serif" font-size="14" lengthAdjust="spacing" textLength="90.3779" x="430.8063" y="481.0055">Record Swipe</text></g><!--entity Check Mutual Like--><g class="entity" data-entity="Check Mutual Like" data-source-line="40" data-uid="ent0032" id="entity_Check Mutual Like"><ellipse cx="668.0006" cy="476.2564" fill="#F1F1F1" rx="77.5906" ry="17.9181" style="stroke:#181818;stroke-width:0.5;"/><text fill="#000000" font-family="sans-serif" font-size="14" lengthAdjust="spacing" textLength="124.332" x="605.8346" y="481.0005">Check Mutual Like</text></g><!--entity Create Connection--><g class="entity" data-entity="Create Connection" data-source-line="41" data-uid="ent0034" id="entity_Create Connection"><ellipse cx="873.997" cy="476.2537" fill="#F1F1F1" rx="78.127" ry="18.0254" style="stroke:#181818;stroke-width:0.5;"/><text fill="#000000" font-family="sans-serif" font-size="14" lengthAdjust="spacing" textLength="125.6172" x="811.1884" y="480.9978">Create Connection</text></g><!--entity Store & Fetch Messages--><g class="entity" data-entity="Store . Fetch Messages" data-source-line="42" data-uid="ent0036" id="entity_Store . Fetch Messages"><ellipse cx="1095.0045" cy="476.2572" fill="#F1F1F1" rx="92.9445" ry="20.9889" style="stroke:#181818;stroke-width:0.5;"/><text fill="#000000" font-family="sans-serif" font-size="14" lengthAdjust="spacing" textLength="159.8857" x="1015.0616" y="481.0013">Store &amp; Fetch Messages</text></g><!--entity Users Table--><g class="entity" data-entity="Users Table" data-source-line="47" data-uid="ent0039" id="entity_Users Table"><ellipse cx="223.0044" cy="603.7773" fill="#F1F1F1" rx="58.9844" ry="14.659" style="stroke:#181818;stroke-width:0.5;"/><text fill="#000000" font-family="sans-serif" font-size="14" lengthAdjust="spacing" textLength="79.1738" x="183.4174" y="608.5214">Users Table</text></g><!--entity Profiles Table--><g class="entity" data-entity="Profiles Table" data-source-line="48" data-uid="ent0041" id="entity_Profiles Table"><ellipse cx="396.9956" cy="603.7754" fill="#F1F1F1" rx="64.7356" ry="15.3471" style="stroke:#181818;stroke-width:0.5;"/><text fill="#000000" font-family="sans-serif" font-size="14" lengthAdjust="spacing" textLength="91.916" x="351.0376" y="608.5195">Profiles Table</text></g><!--entity Swipes Table--><g class="entity" data-entity="Swipes Table" data-source-line="49" data-uid="ent0043" id="entity_Swipes Table"><ellipse cx="574.997" cy="603.7817" fill="#F1F1F1" rx="63.217" ry="15.0434" style="stroke:#181818;stroke-width:0.5;"/><text fill="#000000" font-family="sans-serif" font-size="14" lengthAdjust="spacing" textLength="87.7939" x="531.1001" y="608.5258">Swipes Table</text></g><!--entity Matches Table--><g class="entity" data-entity="Matches Table" data-source-line="51" data-uid="ent0046" id="entity_Matches Table"><ellipse cx="754.999" cy="603.7761" fill="#F1F1F1" rx="66.839" ry="15.7678" style="stroke:#181818;stroke-width:0.5;"/><text fill="#000000" font-family="sans-serif" font-size="14" lengthAdjust="spacing" textLength="97.4941" x="706.252" y="608.5202">Matches Table</text></g><!--entity Messages Table--><g class="entity" data-entity="Messages Table" data-source-line="52" data-uid="ent0048" id="entity_Messages Table"><ellipse cx="941.9978" cy="603.7818" fill="#F1F1F1" rx="70.6178" ry="16.5236" style="stroke:#181818;stroke-width:0.5;"/><text fill="#000000" font-family="sans-serif" font-size="14" lengthAdjust="spacing" textLength="107.2012" x="888.3972" y="608.526">Messages Table</text></g><!--entity U--><g class="entity" data-entity="U" data-source-line="15" data-uid="ent0002" id="entity_U"><ellipse cx="492.0026" cy="51.4883" fill="#F1F1F1" rx="8" ry="8" style="stroke:#181818;stroke-width:0.5;"/><path d="M492.0026,59.4883 L492.0026,86.4883 M479.0026,67.4883 L505.0026,67.4883 M492.0026,86.4883 L479.0026,101.4883 M492.0026,86.4883 L505.0026,101.4883" fill="none" style="stroke:#181818;stroke-width:0.5;"/><text fill="#000000" font-family="sans-serif" font-size="14" lengthAdjust="spacing" textLength="30.3652" x="476.82" y="116.5234">User</text></g><!--link U to Login / Register--><g class="link" data-entity-1="U" data-entity-2="Login . Register" data-source-line="19" data-uid="lnk5" id="link_U_Login . Register"><path d="M476.45,84.9983 C431.07,93.3883 295.41,120.8283 191,166.4783 C163.28,178.5983 138.9712,194.1058 119.9312,207.3858" fill="none" id="U-to-Login / Register" style="stroke:#555555;stroke-width:1.2;"/><polygon fill="#555555" points="115.01,210.8183,124.6801,208.9504,119.111,207.9579,120.1035,202.3888,115.01,210.8183" style="stroke:#555555;stroke-width:1.2;"/></g><!--link U to View / Edit Profile--><g class="link" data-entity-1="U" data-entity-2="View . Edit Profile" data-source-line="20" data-uid="lnk7" id="link_U_View . Edit Profile"><path d="M476.64,93.2883 C441.61,118.4983 360.5406,176.8244 319.4506,206.3844" fill="none" id="U-to-View / Edit Profile" style="stroke:#555555;stroke-width:1.2;"/><polygon fill="#555555" points="314.58,209.8883,324.2218,207.8795,318.6388,206.9684,319.55,201.3854,314.58,209.8883" style="stroke:#555555;stroke-width:1.2;"/></g><!--link U to Swipe on Profiles--><g class="link" data-entity-1="U" data-entity-2="Swipe on Profiles" data-source-line="21" data-uid="lnk9" id="link_U_Swipe on Profiles"><path d="M492,119.6683 C492,148.8183 492,181.8683 492,203.6583" fill="none" id="U-to-Swipe on Profiles" style="stroke:#555555;stroke-width:1.2;"/><polygon fill="#555555" points="492,209.6583,496,200.6583,492,204.6583,488,200.6583,492,209.6583" style="stroke:#555555;stroke-width:1.2;"/></g><!--link U to View Matches--><g class="link" data-entity-1="U" data-entity-2="View Matches" data-source-line="22" data-uid="lnk11" id="link_U_View Matches"><path d="M507.47,94.0083 C542.03,120.3283 620.6163,180.1635 657.7963,208.4735" fill="none" id="U-to-View Matches" style="stroke:#555555;stroke-width:1.2;"/><polygon fill="#555555" points="662.57,212.1083,657.8327,203.4736,658.5919,209.0793,652.9863,209.8385,662.57,212.1083" style="stroke:#555555;stroke-width:1.2;"/></g><!--link U to Send Message--><g class="link" data-entity-1="U" data-entity-2="Send Message" data-source-line="23" data-uid="lnk13" id="link_U_Send Message"><path d="M507.38,85.2483 C550.46,94.0383 675.41,121.8583 771,166.4783 C797.87,179.0283 821.2058,195.0239 838.9558,208.3039" fill="none" id="U-to-Send Message" style="stroke:#555555;stroke-width:1.2;"/><polygon fill="#555555" points="843.76,211.8983,838.9499,203.3039,839.7565,208.903,834.1574,209.7095,843.76,211.8983" style="stroke:#555555;stroke-width:1.2;"/></g><!--link Login / Register to AuthService--><g class="link" data-entity-1="Login . Register" data-entity-2="AuthService" data-source-line="28" data-uid="lnk16" id="link_Login . Register_AuthService"><path d="M100.28,243.9483 C109.73,267.7583 125.2552,306.862 134.2552,329.522" fill="none" id="Login / Register-to-AuthService" style="stroke:#555555;stroke-width:1.2;"/><polygon fill="#555555" points="136.47,335.0983,136.8654,325.2574,134.6244,330.4514,129.4303,328.2104,136.47,335.0983" style="stroke:#555555;stroke-width:1.2;"/></g><!--link View / Edit Profile to ProfileService--><g class="link" data-entity-1="View . Edit Profile" data-entity-2="ProfileService" data-source-line="29" data-uid="lnk18" id="link_View . Edit Profile_ProfileService"><path d="M295.25,245.2083 C299.78,269.0283 306.8103,305.9537 311.0803,328.4337" fill="none" id="View / Edit Profile-to-ProfileService" style="stroke:#555555;stroke-width:1.2;"/><polygon fill="#555555" points="312.2,334.3283,314.4502,324.7399,311.2669,329.4161,306.5908,326.2328,312.2,334.3283" style="stroke:#555555;stroke-width:1.2;"/></g><!--link Swipe on Profiles to SwipeService--><g class="link" data-entity-1="Swipe on Profiles" data-entity-2="SwipeService" data-source-line="30" data-uid="lnk20" id="link_Swipe on Profiles_SwipeService"><path d="M492,244.4483 C492,268.2883 492,306.2883 492,328.8683" fill="none" id="Swipe on Profiles-to-SwipeService" style="stroke:#555555;stroke-width:1.2;"/><polygon fill="#555555" points="492,334.8683,496,325.8683,492,329.8683,488,325.8683,492,334.8683" style="stroke:#555555;stroke-width:1.2;"/></g><!--link View Matches to MatchService--><g class="link" data-entity-1="View Matches" data-entity-2="MatchService" data-source-line="31" data-uid="lnk22" id="link_View Matches_MatchService"><path d="M679.41,242.9683 C676.9,266.2883 672.7011,305.3326 670.2111,328.5026" fill="none" id="View Matches-to-MatchService" style="stroke:#555555;stroke-width:1.2;"/><polygon fill="#555555" points="669.57,334.4683,674.5088,325.9472,670.1043,329.4969,666.5546,325.0924,669.57,334.4683" style="stroke:#555555;stroke-width:1.2;"/></g><!--link Send Message to ChatService--><g class="link" data-entity-1="Send Message" data-entity-2="ChatService" data-source-line="32" data-uid="lnk24" id="link_Send Message_ChatService"><path d="M859.3,242.9683 C855.01,266.5483 847.7635,306.3751 843.5935,329.3051" fill="none" id="Send Message-to-ChatService" style="stroke:#555555;stroke-width:1.2;"/><polygon fill="#555555" points="842.52,335.2083,848.0658,327.0692,843.4146,330.289,840.1949,325.6378,842.52,335.2083" style="stroke:#555555;stroke-width:1.2;"/></g><!--link AuthService to Validate Credentials--><g class="link" data-entity-1="AuthService" data-entity-2="Validate Credentials" data-source-line="37" data-uid="lnk27" id="link_AuthService_Validate Credentials"><path d="M139.12,364.8083 C134.41,387.2983 126.2984,426.0354 121.0484,451.1354" fill="none" id="AuthService-to-Validate Credentials" style="stroke:#555555;stroke-width:1.2;"/><polygon fill="#555555" points="119.82,457.0083,125.5779,449.0179,120.8437,452.1142,117.7473,447.38,119.82,457.0083" style="stroke:#555555;stroke-width:1.2;"/></g><!--link ProfileService to Apply Edits--><g class="link" data-entity-1="ProfileService" data-entity-2="Apply Edits" data-source-line="38" data-uid="lnk29" id="link_ProfileService_Apply Edits"><path d="M313.85,365.2883 C311.92,389.2483 308.5315,431.3476 306.6115,455.1976" fill="none" id="ProfileService-to-Apply Edits" style="stroke:#555555;stroke-width:1.2;"/><polygon fill="#555555" points="306.13,461.1783,310.8393,452.5283,306.5312,456.1944,302.8651,451.8863,306.13,461.1783" style="stroke:#555555;stroke-width:1.2;"/></g><!--link SwipeService to Record Swipe--><g class="link" data-entity-1="SwipeService" data-entity-2="Record Swipe" data-source-line="39" data-uid="lnk31" id="link_SwipeService_Record Swipe"><path d="M490.16,365.2883 C487.09,389.1183 481.7168,430.8675 478.6268,454.8475" fill="none" id="SwipeService-to-Record Swipe" style="stroke:#555555;stroke-width:1.2;"/><polygon fill="#555555" points="477.86,460.7983,482.9774,452.3833,478.499,455.8393,475.043,451.3609,477.86,460.7983" style="stroke:#555555;stroke-width:1.2;"/></g><!--link SwipeService to Check Mutual Like--><g class="link" data-entity-1="SwipeService" data-entity-2="Check Mutual Like" data-source-line="40" data-uid="lnk33" id="link_SwipeService_Check Mutual Like"><path d="M511.17,364.5683 C543.69,387.5183 604.6483,430.548 639.7783,455.348" fill="none" id="SwipeService-to-Check Mutual Like" style="stroke:#555555;stroke-width:1.2;"/><polygon fill="#555555" points="644.68,458.8083,639.6344,450.35,640.5953,455.9247,635.0206,456.8856,644.68,458.8083" style="stroke:#555555;stroke-width:1.2;"/></g><!--link MatchService to Create Connection--><g class="link" data-entity-1="MatchService" data-entity-2="Create Connection" data-source-line="41" data-uid="lnk35" id="link_MatchService_Create Connection"><path d="M690.55,364.3383 C711.45,376.6883 743.39,395.6183 771,412.2783 C797.03,427.9683 821.4988,442.9458 842.2688,455.7158" fill="none" id="MatchService-to-Create Connection" style="stroke:#555555;stroke-width:1.2;"/><polygon fill="#555555" points="847.38,458.8583,841.8082,450.737,843.1207,456.2395,837.6182,457.552,847.38,458.8583" style="stroke:#555555;stroke-width:1.2;"/></g><!--link ChatService to Store & Fetch Messages--><g class="link" data-entity-1="ChatService" data-entity-2="Store . Fetch Messages" data-source-line="42" data-uid="lnk37" id="link_ChatService_Store . Fetch Messages"><path d="M868.87,363.2383 C896.78,375.2083 940.15,394.2283 977,412.2783 C1005.68,426.3183 1032.3308,440.5602 1055.7308,453.4102" fill="none" id="ChatService-to-Store &amp; Fetch Messages" style="stroke:#555555;stroke-width:1.2;"/><polygon fill="#555555" points="1060.99,456.2983,1055.0266,448.4601,1056.6073,453.8916,1051.1758,455.4723,1060.99,456.2983" style="stroke:#555555;stroke-width:1.2;"/></g><!--link Validate Credentials to Users Table--><g class="link" data-entity-1="Validate Credentials" data-entity-2="Users Table" data-source-line="47" data-uid="lnk40" id="link_Validate Credentials_Users Table"><path d="M131.33,495.2483 C152.94,520.5983 187.9973,561.7224 207.4273,584.5124" fill="none" id="Validate Credentials-to-Users Table" style="stroke:#555555;stroke-width:1.2;"/><polygon fill="#555555" points="211.32,589.0783,208.5249,579.6344,208.0761,585.2734,202.4371,584.8246,211.32,589.0783" style="stroke:#555555;stroke-width:1.2;"/></g><!--link Apply Edits to Profiles Table--><g class="link" data-entity-1="Apply Edits" data-entity-2="Profiles Table" data-source-line="48" data-uid="lnk42" id="link_Apply Edits_Profiles Table"><path d="M315.2,491.1783 C332.79,515.1683 365.1141,559.2682 382.9241,583.5782" fill="none" id="Apply Edits-to-Profiles Table" style="stroke:#555555;stroke-width:1.2;"/><polygon fill="#555555" points="386.47,588.4183,384.3778,578.7942,383.5151,584.3849,377.9244,583.5221,386.47,588.4183" style="stroke:#555555;stroke-width:1.2;"/></g><!--link Record Swipe to Swipes Table--><g class="link" data-entity-1="Record Swipe" data-entity-2="Swipes Table" data-source-line="49" data-uid="lnk44" id="link_Record Swipe_Swipes Table"><path d="M487.36,491.6583 C506.45,515.8683 541.0541,559.7374 560.0641,583.8374" fill="none" id="Record Swipe-to-Swipes Table" style="stroke:#555555;stroke-width:1.2;"/><polygon fill="#555555" points="563.78,588.5483,561.3467,579.0047,560.6834,584.6226,555.0656,583.9593,563.78,588.5483" style="stroke:#555555;stroke-width:1.2;"/></g><!--link Check Mutual Like to Swipes Table--><g class="link" data-entity-1="Check Mutual Like" data-entity-2="Swipes Table" data-source-line="50" data-uid="lnk45" id="link_Check Mutual Like_Swipes Table"><path d="M655.46,494.1883 C636.91,519.2183 606.102,560.7974 588.912,583.9974" fill="none" id="Check Mutual Like-to-Swipes Table" style="stroke:#555555;stroke-width:1.2;"/><polygon fill="#555555" points="585.34,588.8183,593.9119,583.9683,588.3167,584.8009,587.4841,579.2056,585.34,588.8183" style="stroke:#555555;stroke-width:1.2;"/></g><!--link Create Connection to Matches Table--><g class="link" data-entity-1="Create Connection" data-entity-2="Matches Table" data-source-line="51" data-uid="lnk47" id="link_Create Connection_Matches Table"><path d="M857.95,494.1883 C834.48,518.9483 795.2978,560.2738 773.0778,583.7138" fill="none" id="Create Connection-to-Matches Table" style="stroke:#555555;stroke-width:1.2;"/><polygon fill="#555555" points="768.95,588.0683,778.0447,584.2885,772.3898,584.4396,772.2387,578.7847,768.95,588.0683" style="stroke:#555555;stroke-width:1.2;"/></g><!--link Store & Fetch Messages to Messages Table--><g class="link" data-entity-1="Store . Fetch Messages" data-entity-2="Messages Table" data-source-line="52" data-uid="lnk49" id="link_Store . Fetch Messages_Messages Table"><path d="M1071.09,496.8783 C1040.5,521.9683 992.7983,561.1022 965.0983,583.8322" fill="none" id="Store &amp; Fetch Messages-to-Messages Table" style="stroke:#555555;stroke-width:1.2;"/><polygon fill="#555555" points="960.46,587.6383,969.9548,585.0214,964.3252,584.4665,964.8801,578.837,960.46,587.6383" style="stroke:#555555;stroke-width:1.2;"/></g><!--SRC=[TPJVJzim4CVVyrUSGDhAGqS7GniFcnJoOwlK0YA5TpUvDbQ37TaE4PluttTsqk8Gy5Fi-zg-xyTtCTnK2BTARb1hBWMhu5Ogiv4Lbp25j16vSSlSF4DQoJO8FiDqEeKiJ1DO_KcM2Ko415rZpcdpHWgZJrcBMZxYYLK6UiT5pHHxX3NBTrib6r54if8AZbCtF8KkMI5RBhQmOPL6BrBJNhR5p3nJlWfpmyIsyWMXKhBjpxrmmmlUxJTSILMWwcNVt7Xxngha-KuG3lZwvSpQdOjS8TC8JwWCpydb9oYbud_9AqqqfMOpNgDf4GKe9dRwLCW2jNUqMyKQBcVUeXFHuiKi25XkAATxZGgOXdjxyKyQaDxTNA-IwzZDWeDpE4eLtO-YW4bQDSQWEZcoE-bPZfFpz2oDuLy0S4zly0ic2xdb0au9n9PhgtqDFN1iAP8KtBX2u1LwqQpbDO8K-v1-ktF9J5uEbZERr980qdkT12y79rbozp2Facpa9AphYhZQGeCCrHFFKSCaPieSffstx24YSp_IY-JIcHlRwZ886rFsEsrUxrhibFtC5uyTUoH6f-xjTnet6npci-WqKSdCGV9A9xvPXlDhMDpydaSZGh5yP6JKsiqTYKvc6-WycNKiVDFz-r3R5imWH0eB58OQrBtJMzSzD7g5PyT8lt8OIgYDg7_0HJxIH2NcErWsfg7UMF1T9no0wONKL3OtAGIwdumJ-dHwxjGNI2sN8XsnPwa7wC9LU1LcIOUD7BErRTUZUFyroPhQVNLb55zH5StIxsdOaNkNKtUvxKSDAxRkcc80QL11lcY0oIiUNpF6z95mXCahjO7o0r2zl9_kzI__0G00]--></g></svg>