<svg xmlns="http://www.w3.org/2000/svg" xmlns:xlink="http://www.w3.org/1999/xlink" contentStyleType="text/css" data-diagram-type="ACTIVITY" height="2411px" preserveAspectRatio="none" style="width:465px;height:2411px;background:#FFFFFF;" version="1.1" viewBox="0 0 465 2411" width="465px" zoomAndPan="magnify"><title>Job Seeker Flows (J1-J9) - Tinder-Style Matching App</title><defs/><g><g class="title" data-source-line="1"><text fill="#000000" font-family="sans-serif" font-size="14" font-weight="bold" lengthAdjust="spacing" textLength="390.0654" x="35.9787" y="33.5352">Job Seeker Flows (J1-J9) - Tinder-Style Matching App</text></g><ellipse cx="248.5602" cy="57.4883" fill="#222222" rx="10" ry="10" style="stroke:#222222;stroke-width:1;"/><rect fill="none" height="305.041" style="stroke:#000000;stroke-width:1.5;" width="359.8267" x="68.6469" y="77.4883"/><path d="M331.2074,77.4883 L331.2074,86.9766 L321.2074,96.9766 L68.6469,96.9766" fill="none" style="stroke:#000000;stroke-width:1.5;"/><text fill="#000000" font-family="sans-serif" font-size="14" lengthAdjust="spacing" textLength="252.5605" x="71.6469" y="92.0234">J1 &#8212; Onboarding &amp; Account Creation</text><rect fill="#FFFDE7" height="35.3105" rx="12.5" ry="12.5" style="stroke:#444444;stroke-width:0.5;" width="196.2744" x="150.423" y="113.9766"/><text fill="#000000" font-family="sans-serif" font-size="13" lengthAdjust="spacing" textLength="176.2744" x="160.423" y="136.5449">Launch app &#8594; *Get started*</text><rect fill="#FFFDE7" height="35.3105" rx="12.5" ry="12.5" style="stroke:#444444;stroke-width:0.5;" width="339.8267" x="78.6469" y="169.2871"/><text fill="#000000" font-family="sans-serif" font-size="13" lengthAdjust="spacing" textLength="319.8267" x="88.6469" y="191.8555">Sign up (personal email, LinkedIn, or SSO) &#8594; verify</text><rect fill="#FFFDE7" height="35.3105" rx="12.5" ry="12.5" style="stroke:#444444;stroke-width:0.5;" width="192.3833" x="152.3685" y="224.5977"/><text fill="#000000" font-family="sans-serif" font-size="13" lengthAdjust="spacing" textLength="172.3833" x="162.3685" y="247.166">Choose role = *Job Seeker*</text><rect fill="#FFFDE7" height="35.3105" rx="12.5" ry="12.5" style="stroke:#444444;stroke-width:0.5;" width="179.1484" x="158.986" y="279.9082"/><text fill="#000000" font-family="sans-serif" font-size="13" lengthAdjust="spacing" textLength="159.1484" x="168.986" y="302.4766">Accept terms and privacy</text><rect fill="#FFFDE7" height="35.3105" rx="12.5" ry="12.5" style="stroke:#444444;stroke-width:0.5;" width="191.501" x="152.8097" y="335.2188"/><text fill="#000000" font-family="sans-serif" font-size="13" lengthAdjust="spacing" textLength="171.501" x="162.8097" y="357.7871">Land on *Profile Setup* (J2)</text><rect fill="none" height="360.3516" style="stroke:#000000;stroke-width:1.5;" width="386.3027" x="55.4088" y="392.5293"/><path d="M187.0885,392.5293 L187.0885,402.0176 L177.0885,412.0176 L55.4088,412.0176" fill="none" style="stroke:#000000;stroke-width:1.5;"/><text fill="#000000" font-family="sans-serif" font-size="14" lengthAdjust="spacing" textLength="121.6797" x="58.4088" y="407.0645">J2 &#8212; Profile Setup</text><rect fill="#FFFDE7" height="35.3105" rx="12.5" ry="12.5" style="stroke:#444444;stroke-width:0.5;" width="366.3027" x="65.4088" y="429.0176"/><text fill="#000000" font-family="sans-serif" font-size="13" lengthAdjust="spacing" textLength="346.3027" x="75.4088" y="451.5859">Enter basics (name, location, desired roles, availability)</text><rect fill="#FFFDE7" height="35.3105" rx="12.5" ry="12.5" style="stroke:#444444;stroke-width:0.5;" width="338.481" x="79.3197" y="484.3281"/><text fill="#000000" font-family="sans-serif" font-size="13" lengthAdjust="spacing" textLength="318.481" x="89.3197" y="506.8965">Select background (*Alumni* or *Career Switcher*)</text><rect fill="#FFFDE7" height="35.3105" rx="12.5" ry="12.5" style="stroke:#444444;stroke-width:0.5;" width="193.4561" x="151.8322" y="539.6387"/><text fill="#000000" font-family="sans-serif" font-size="13" lengthAdjust="spacing" textLength="173.4561" x="161.8322" y="562.207">Upload resume *(required)*</text><rect fill="#FFFDE7" height="35.3105" rx="12.5" ry="12.5" style="stroke:#444444;stroke-width:0.5;" width="274.4902" x="111.3151" y="594.9492"/><text fill="#000000" font-family="sans-serif" font-size="13" lengthAdjust="spacing" textLength="254.4902" x="121.3151" y="617.5176">Add skills, industries, job type, seniority</text><rect fill="#FFFDE7" height="35.3105" rx="12.5" ry="12.5" style="stroke:#444444;stroke-width:0.5;" width="297.1641" x="99.9781" y="650.2598"/><text fill="#000000" font-family="sans-serif" font-size="13" lengthAdjust="spacing" textLength="277.1641" x="109.9781" y="672.8281">Optional: portfolio links or short intro video</text><rect fill="#FFFDE7" height="35.3105" rx="12.5" ry="12.5" style="stroke:#444444;stroke-width:0.5;" width="167.5894" x="164.7655" y="705.5703"/><text fill="#000000" font-family="sans-serif" font-size="13" lengthAdjust="spacing" textLength="147.5894" x="174.7655" y="728.1387">Save &#8594; *Discovery* (J3)</text><rect fill="none" height="313.7305" style="stroke:#000000;stroke-width:1.5;" width="432.228" x="11" y="762.8809"/><path d="M193.8672,762.8809 L193.8672,772.3691 L183.8672,782.3691 L11,782.3691" fill="none" style="stroke:#000000;stroke-width:1.5;"/><text fill="#000000" font-family="sans-serif" font-size="14" lengthAdjust="spacing" textLength="172.8672" x="14" y="777.416">J3 &#8212; Discovery &amp; Swiping</text><rect fill="#FFFDE7" height="35.3105" rx="12.5" ry="12.5" style="stroke:#444444;stroke-width:0.5;" width="252.8892" x="122.1156" y="799.3691"/><text fill="#000000" font-family="sans-serif" font-size="13" lengthAdjust="spacing" textLength="232.8892" x="132.1156" y="821.9375">Browse recruiter/company role cards</text><rect fill="#FFFDE7" height="35.3105" rx="12.5" ry="12.5" style="stroke:#444444;stroke-width:0.5;" width="248.4395" x="124.3405" y="854.6797"/><text fill="#000000" font-family="sans-serif" font-size="13" lengthAdjust="spacing" textLength="228.4395" x="134.3405" y="877.248">Swipe right = interested; left = pass</text><rect fill="#FFFDE7" height="35.3105" rx="12.5" ry="12.5" style="stroke:#444444;stroke-width:0.5;" width="265.1592" x="115.9806" y="909.9902"/><text fill="#000000" font-family="sans-serif" font-size="13" lengthAdjust="spacing" textLength="245.1592" x="125.9806" y="932.5586">Filter by seniority, experience, location</text><polygon fill="#FFFDE7" points="202.7428,965.3008,294.3776,965.3008,306.3776,977.3008,294.3776,989.3008,202.7428,989.3008,190.7428,977.3008,202.7428,965.3008" style="stroke:#444444;stroke-width:0.5;"/><text fill="#000000" font-family="sans-serif" font-size="13" lengthAdjust="spacing" textLength="91.6348" x="202.7428" y="982.2139">Mutual match?</text><text fill="#000000" font-family="sans-serif" font-size="11" lengthAdjust="spacing" textLength="17.4829" x="173.2599" y="974.9805">yes</text><text fill="#000000" font-family="sans-serif" font-size="11" lengthAdjust="spacing" textLength="13.5835" x="306.3776" y="974.9805">no</text><rect fill="#FFFDE7" height="35.3105" rx="12.5" ry="12.5" style="stroke:#444444;stroke-width:0.5;" width="241.0063" x="23" y="999.3008"/><text fill="#000000" font-family="sans-serif" font-size="13" lengthAdjust="spacing" textLength="221.0063" x="33" y="1021.8691">Proceed to *Match &amp; Outreach* (J4)</text><rect fill="#FFFDE7" height="35.3105" rx="12.5" ry="12.5" style="stroke:#444444;stroke-width:0.5;" width="139.2217" x="284.0063" y="999.3008"/><text fill="#000000" font-family="sans-serif" font-size="13" lengthAdjust="spacing" textLength="119.2217" x="294.0063" y="1021.8691">Continue browsing</text><polygon fill="#FFFDE7" points="248.5602,1040.6113,260.5602,1052.6113,248.5602,1064.6113,236.5602,1052.6113,248.5602,1040.6113" style="stroke:#444444;stroke-width:0.5;"/><rect fill="none" height="194.4199" style="stroke:#000000;stroke-width:1.5;" width="303.1675" x="96.9764" y="1086.6113"/><path d="M264.4696,1086.6113 L264.4696,1096.0996 L254.4696,1106.0996 L96.9764,1106.0996" fill="none" style="stroke:#000000;stroke-width:1.5;"/><text fill="#000000" font-family="sans-serif" font-size="14" lengthAdjust="spacing" textLength="157.4932" x="99.9764" y="1101.1465">J4 &#8212; Match &amp; Outreach</text><rect fill="#FFFDE7" height="35.3105" rx="12.5" ry="12.5" style="stroke:#444444;stroke-width:0.5;" width="263.2866" x="116.9169" y="1123.0996"/><text fill="#000000" font-family="sans-serif" font-size="13" lengthAdjust="spacing" textLength="243.2866" x="126.9169" y="1145.668">"It&#8217;s a match!" &#8594; quick intro templates</text><rect fill="#FFFDE7" height="35.3105" rx="12.5" ry="12.5" style="stroke:#444444;stroke-width:0.5;" width="279.7271" x="108.6967" y="1178.4102"/><text fill="#000000" font-family="sans-serif" font-size="13" lengthAdjust="spacing" textLength="259.7271" x="118.6967" y="1200.9785">Recruiter can access resume immediately</text><rect fill="#FFFDE7" height="35.3105" rx="12.5" ry="12.5" style="stroke:#444444;stroke-width:0.5;" width="283.1675" x="106.9764" y="1233.7207"/><text fill="#000000" font-family="sans-serif" font-size="13" lengthAdjust="spacing" textLength="263.1675" x="116.9764" y="1256.2891">Open *Chat* (J5) or propose interview (J6)</text><rect fill="none" height="305.041" style="stroke:#000000;stroke-width:1.5;" width="336.1626" x="80.4789" y="1291.0313"/><path d="M254.6508,1291.0313 L254.6508,1300.5195 L244.6508,1310.5195 L80.4789,1310.5195" fill="none" style="stroke:#000000;stroke-width:1.5;"/><text fill="#000000" font-family="sans-serif" font-size="14" lengthAdjust="spacing" textLength="164.1719" x="83.4789" y="1305.5664">J5 &#8212; Chat &amp; Networking</text><rect fill="#FFFDE7" height="35.3105" rx="12.5" ry="12.5" style="stroke:#444444;stroke-width:0.5;" width="310.3037" x="93.4083" y="1327.5195"/><text fill="#000000" font-family="sans-serif" font-size="13" lengthAdjust="spacing" textLength="290.3037" x="103.4083" y="1350.0879">In-app chat with transferable-skills templates</text><rect fill="#FFFDE7" height="35.3105" rx="12.5" ry="12.5" style="stroke:#444444;stroke-width:0.5;" width="242.9614" x="127.0795" y="1382.8301"/><text fill="#000000" font-family="sans-serif" font-size="13" lengthAdjust="spacing" textLength="222.9614" x="137.0795" y="1405.3984">Share links, references, or portfolio</text><rect fill="#FFFDE7" height="35.3105" rx="12.5" ry="12.5" style="stroke:#444444;stroke-width:0.5;" width="196.9028" x="150.1088" y="1438.1406"/><text fill="#000000" font-family="sans-serif" font-size="13" lengthAdjust="spacing" textLength="176.9028" x="160.1088" y="1460.709">Request informational chats</text><rect fill="#FFFDE7" height="35.3105" rx="12.5" ry="12.5" style="stroke:#444444;stroke-width:0.5;" width="316.1626" x="90.4789" y="1493.4512"/><text fill="#000000" font-family="sans-serif" font-size="13" lengthAdjust="spacing" textLength="296.1626" x="100.4789" y="1516.0195">Use *Networking mode* (mentorship/referrals)</text><rect fill="#FFFDE7" height="35.3105" rx="12.5" ry="12.5" style="stroke:#444444;stroke-width:0.5;" width="197.5757" x="149.7723" y="1548.7617"/><text fill="#000000" font-family="sans-serif" font-size="13" lengthAdjust="spacing" textLength="177.5757" x="159.7723" y="1571.3301">Safety options: block/report</text><rect fill="none" height="194.4199" style="stroke:#000000;stroke-width:1.5;" width="336.2642" x="80.4281" y="1606.0723"/><path d="M273.6381,1606.0723 L273.6381,1615.5605 L263.6381,1625.5605 L80.4281,1625.5605" fill="none" style="stroke:#000000;stroke-width:1.5;"/><text fill="#000000" font-family="sans-serif" font-size="14" lengthAdjust="spacing" textLength="183.21" x="83.4281" y="1620.6074">J6 &#8212; Scheduling Interviews</text><rect fill="#FFFDE7" height="35.3105" rx="12.5" ry="12.5" style="stroke:#444444;stroke-width:0.5;" width="227.9238" x="134.5983" y="1642.5605"/><text fill="#000000" font-family="sans-serif" font-size="13" lengthAdjust="spacing" textLength="207.9238" x="144.5983" y="1665.1289">Propose or accept interview slots</text><rect fill="#FFFDE7" height="35.3105" rx="12.5" ry="12.5" style="stroke:#444444;stroke-width:0.5;" width="234.4492" x="131.3356" y="1697.8711"/><text fill="#000000" font-family="sans-serif" font-size="13" lengthAdjust="spacing" textLength="214.4492" x="141.3356" y="1720.4395">Calendar invites + reminders sent</text><rect fill="#FFFDE7" height="35.3105" rx="12.5" ry="12.5" style="stroke:#444444;stroke-width:0.5;" width="316.2642" x="90.4281" y="1753.1816"/><text fill="#000000" font-family="sans-serif" font-size="13" lengthAdjust="spacing" textLength="296.2642" x="100.4281" y="1775.75">ATS integration via *Sys2* for pipeline creation</text><rect fill="none" height="139.1094" style="stroke:#000000;stroke-width:1.5;" width="410.9253" x="43.0975" y="1810.4922"/><path d="M220.3934,1810.4922 L220.3934,1819.9805 L210.3934,1829.9805 L43.0975,1829.9805" fill="none" style="stroke:#000000;stroke-width:1.5;"/><text fill="#000000" font-family="sans-serif" font-size="14" lengthAdjust="spacing" textLength="167.2959" x="46.0975" y="1825.0273">J7 &#8212; Events &amp; Resources</text><rect fill="#FFFDE7" height="35.3105" rx="12.5" ry="12.5" style="stroke:#444444;stroke-width:0.5;" width="285.5542" x="105.7831" y="1846.9805"/><text fill="#000000" font-family="sans-serif" font-size="13" lengthAdjust="spacing" textLength="265.5542" x="115.7831" y="1869.5488">Join company events; RSVP + QR check-in</text><rect fill="#FFFDE7" height="35.3105" rx="12.5" ry="12.5" style="stroke:#444444;stroke-width:0.5;" width="390.9253" x="53.0975" y="1902.291"/><text fill="#000000" font-family="sans-serif" font-size="13" lengthAdjust="spacing" textLength="370.9253" x="63.0975" y="1924.8594">Access resource hub: resume tips, interview prep, mentors</text><rect fill="none" height="194.4199" style="stroke:#000000;stroke-width:1.5;" width="337.4575" x="79.8314" y="1959.6016"/><path d="M282.058,1959.6016 L282.058,1969.0898 L272.058,1979.0898 L79.8314,1979.0898" fill="none" style="stroke:#000000;stroke-width:1.5;"/><text fill="#000000" font-family="sans-serif" font-size="14" lengthAdjust="spacing" textLength="192.2266" x="82.8314" y="1974.1367">J8 &#8212; Notifications &amp; Nudges</text><rect fill="#FFFDE7" height="35.3105" rx="12.5" ry="12.5" style="stroke:#444444;stroke-width:0.5;" width="283.1929" x="106.9637" y="1996.0898"/><text fill="#000000" font-family="sans-serif" font-size="13" lengthAdjust="spacing" textLength="263.1929" x="116.9637" y="2018.6582">Receive new match and profile view alerts</text><rect fill="#FFFDE7" height="35.3105" rx="12.5" ry="12.5" style="stroke:#444444;stroke-width:0.5;" width="266.6572" x="115.2316" y="2051.4004"/><text fill="#000000" font-family="sans-serif" font-size="13" lengthAdjust="spacing" textLength="246.6572" x="125.2316" y="2073.9688">Weekly digest of roles matching profile</text><rect fill="#FFFDE7" height="35.3105" rx="12.5" ry="12.5" style="stroke:#444444;stroke-width:0.5;" width="317.4575" x="89.8314" y="2106.7109"/><text fill="#000000" font-family="sans-serif" font-size="13" lengthAdjust="spacing" textLength="297.4575" x="99.8314" y="2129.2793">Profile completeness nudges (e.g., &#8220;Add skills&#8221;)</text><rect fill="none" height="194.4199" style="stroke:#000000;stroke-width:1.5;" width="368.5928" x="64.2638" y="2164.0215"/><path d="M261.0353,2164.0215 L261.0353,2173.5098 L251.0353,2183.5098 L64.2638,2183.5098" fill="none" style="stroke:#000000;stroke-width:1.5;"/><text fill="#000000" font-family="sans-serif" font-size="14" lengthAdjust="spacing" textLength="186.7715" x="67.2638" y="2178.5566">J9 &#8212; Post-Match Outcomes</text><rect fill="#FFFDE7" height="35.3105" rx="12.5" ry="12.5" style="stroke:#444444;stroke-width:0.5;" width="348.5928" x="74.2638" y="2200.5098"/><text fill="#000000" font-family="sans-serif" font-size="13" lengthAdjust="spacing" textLength="328.5928" x="84.2638" y="2223.0781">View pipeline stages mirrored from recruiter system</text><rect fill="#FFFDE7" height="35.3105" rx="12.5" ry="12.5" style="stroke:#444444;stroke-width:0.5;" width="319.5522" x="88.7841" y="2255.8203"/><text fill="#000000" font-family="sans-serif" font-size="13" lengthAdjust="spacing" textLength="299.5522" x="98.7841" y="2278.3887">No reply after X days &#8594; reminder or auto-close</text><rect fill="#FFFDE7" height="35.3105" rx="12.5" ry="12.5" style="stroke:#444444;stroke-width:0.5;" width="312.5698" x="92.2753" y="2311.1309"/><text fill="#000000" font-family="sans-serif" font-size="13" lengthAdjust="spacing" textLength="292.5698" x="102.2753" y="2333.6992">Withdraw application or mark *Not interested*</text><ellipse cx="248.5602" cy="2389.4414" fill="none" rx="11" ry="11" style="stroke:#222222;stroke-width:1;"/><ellipse cx="248.5602" cy="2389.4414" fill="#222222" rx="6" ry="6" style="stroke:#222222;stroke-width:1;"/><line style="stroke:#555555;stroke-width:1.2;" x1="248.5602" x2="248.5602" y1="149.2871" y2="169.2871"/><polygon fill="#555555" points="244.5602,159.2871,248.5602,169.2871,252.5602,159.2871,248.5602,163.2871" style="stroke:#555555;stroke-width:1;"/><line style="stroke:#555555;stroke-width:1.2;" x1="248.5602" x2="248.5602" y1="204.5977" y2="224.5977"/><polygon fill="#555555" points="244.5602,214.5977,248.5602,224.5977,252.5602,214.5977,248.5602,218.5977" style="stroke:#555555;stroke-width:1;"/><line style="stroke:#555555;stroke-width:1.2;" x1="248.5602" x2="248.5602" y1="259.9082" y2="279.9082"/><polygon fill="#555555" points="244.5602,269.9082,248.5602,279.9082,252.5602,269.9082,248.5602,273.9082" style="stroke:#555555;stroke-width:1;"/><line style="stroke:#555555;stroke-width:1.2;" x1="248.5602" x2="248.5602" y1="315.2188" y2="335.2188"/><polygon fill="#555555" points="244.5602,325.2188,248.5602,335.2188,252.5602,325.2188,248.5602,329.2188" style="stroke:#555555;stroke-width:1;"/><line style="stroke:#555555;stroke-width:1.2;" x1="248.5602" x2="248.5602" y1="67.4883" y2="113.9766"/><polygon fill="#555555" points="244.5602,103.9766,248.5602,113.9766,252.5602,103.9766,248.5602,107.9766" style="stroke:#555555;stroke-width:1;"/><line style="stroke:#555555;stroke-width:1.2;" x1="248.5602" x2="248.5602" y1="464.3281" y2="484.3281"/><polygon fill="#555555" points="244.5602,474.3281,248.5602,484.3281,252.5602,474.3281,248.5602,478.3281" style="stroke:#555555;stroke-width:1;"/><line style="stroke:#555555;stroke-width:1.2;" x1="248.5602" x2="248.5602" y1="519.6387" y2="539.6387"/><polygon fill="#555555" points="244.5602,529.6387,248.5602,539.6387,252.5602,529.6387,248.5602,533.6387" style="stroke:#555555;stroke-width:1;"/><line style="stroke:#555555;stroke-width:1.2;" x1="248.5602" x2="248.5602" y1="574.9492" y2="594.9492"/><polygon fill="#555555" points="244.5602,584.9492,248.5602,594.9492,252.5602,584.9492,248.5602,588.9492" style="stroke:#555555;stroke-width:1;"/><line style="stroke:#555555;stroke-width:1.2;" x1="248.5602" x2="248.5602" y1="630.2598" y2="650.2598"/><polygon fill="#555555" points="244.5602,640.2598,248.5602,650.2598,252.5602,640.2598,248.5602,644.2598" style="stroke:#555555;stroke-width:1;"/><line style="stroke:#555555;stroke-width:1.2;" x1="248.5602" x2="248.5602" y1="685.5703" y2="705.5703"/><polygon fill="#555555" points="244.5602,695.5703,248.5602,705.5703,252.5602,695.5703,248.5602,699.5703" style="stroke:#555555;stroke-width:1;"/><line style="stroke:#555555;stroke-width:1.2;" x1="248.5602" x2="248.5602" y1="370.5293" y2="429.0176"/><polygon fill="#555555" points="244.5602,419.0176,248.5602,429.0176,252.5602,419.0176,248.5602,423.0176" style="stroke:#555555;stroke-width:1;"/><line style="stroke:#555555;stroke-width:1.2;" x1="248.5602" x2="248.5602" y1="834.6797" y2="854.6797"/><polygon fill="#555555" points="244.5602,844.6797,248.5602,854.6797,252.5602,844.6797,248.5602,848.6797" style="stroke:#555555;stroke-width:1;"/><line style="stroke:#555555;stroke-width:1.2;" x1="248.5602" x2="248.5602" y1="889.9902" y2="909.9902"/><polygon fill="#555555" points="244.5602,899.9902,248.5602,909.9902,252.5602,899.9902,248.5602,903.9902" style="stroke:#555555;stroke-width:1;"/><line style="stroke:#555555;stroke-width:1.2;" x1="190.7428" x2="143.5032" y1="977.3008" y2="977.3008"/><line style="stroke:#555555;stroke-width:1.2;" x1="143.5032" x2="143.5032" y1="977.3008" y2="999.3008"/><polygon fill="#555555" points="139.5032,989.3008,143.5032,999.3008,147.5032,989.3008,143.5032,993.3008" style="stroke:#555555;stroke-width:1;"/><line style="stroke:#555555;stroke-width:1.2;" x1="306.3776" x2="353.6172" y1="977.3008" y2="977.3008"/><line style="stroke:#555555;stroke-width:1.2;" x1="353.6172" x2="353.6172" y1="977.3008" y2="999.3008"/><polygon fill="#555555" points="349.6172,989.3008,353.6172,999.3008,357.6172,989.3008,353.6172,993.3008" style="stroke:#555555;stroke-width:1;"/><line style="stroke:#555555;stroke-width:1.2;" x1="143.5032" x2="143.5032" y1="1034.6113" y2="1052.6113"/><line style="stroke:#555555;stroke-width:1.2;" x1="143.5032" x2="236.5602" y1="1052.6113" y2="1052.6113"/><polygon fill="#555555" points="226.5602,1048.6113,236.5602,1052.6113,226.5602,1056.6113,230.5602,1052.6113" style="stroke:#555555;stroke-width:1;"/><line style="stroke:#555555;stroke-width:1.2;" x1="353.6172" x2="353.6172" y1="1034.6113" y2="1052.6113"/><line style="stroke:#555555;stroke-width:1.2;" x1="353.6172" x2="260.5602" y1="1052.6113" y2="1052.6113"/><polygon fill="#555555" points="270.5602,1048.6113,260.5602,1052.6113,270.5602,1056.6113,266.5602,1052.6113" style="stroke:#555555;stroke-width:1;"/><line style="stroke:#555555;stroke-width:1.2;" x1="248.5602" x2="248.5602" y1="945.3008" y2="965.3008"/><polygon fill="#555555" points="244.5602,955.3008,248.5602,965.3008,252.5602,955.3008,248.5602,959.3008" style="stroke:#555555;stroke-width:1;"/><line style="stroke:#555555;stroke-width:1.2;" x1="248.5602" x2="248.5602" y1="740.8809" y2="799.3691"/><polygon fill="#555555" points="244.5602,789.3691,248.5602,799.3691,252.5602,789.3691,248.5602,793.3691" style="stroke:#555555;stroke-width:1;"/><line style="stroke:#555555;stroke-width:1.2;" x1="248.5602" x2="248.5602" y1="1158.4102" y2="1178.4102"/><polygon fill="#555555" points="244.5602,1168.4102,248.5602,1178.4102,252.5602,1168.4102,248.5602,1172.4102" style="stroke:#555555;stroke-width:1;"/><line style="stroke:#555555;stroke-width:1.2;" x1="248.5602" x2="248.5602" y1="1213.7207" y2="1233.7207"/><polygon fill="#555555" points="244.5602,1223.7207,248.5602,1233.7207,252.5602,1223.7207,248.5602,1227.7207" style="stroke:#555555;stroke-width:1;"/><line style="stroke:#555555;stroke-width:1.2;" x1="248.5602" x2="248.5602" y1="1064.6113" y2="1123.0996"/><polygon fill="#555555" points="244.5602,1113.0996,248.5602,1123.0996,252.5602,1113.0996,248.5602,1117.0996" style="stroke:#555555;stroke-width:1;"/><line style="stroke:#555555;stroke-width:1.2;" x1="248.5602" x2="248.5602" y1="1362.8301" y2="1382.8301"/><polygon fill="#555555" points="244.5602,1372.8301,248.5602,1382.8301,252.5602,1372.8301,248.5602,1376.8301" style="stroke:#555555;stroke-width:1;"/><line style="stroke:#555555;stroke-width:1.2;" x1="248.5602" x2="248.5602" y1="1418.1406" y2="1438.1406"/><polygon fill="#555555" points="244.5602,1428.1406,248.5602,1438.1406,252.5602,1428.1406,248.5602,1432.1406" style="stroke:#555555;stroke-width:1;"/><line style="stroke:#555555;stroke-width:1.2;" x1="248.5602" x2="248.5602" y1="1473.4512" y2="1493.4512"/><polygon fill="#555555" points="244.5602,1483.4512,248.5602,1493.4512,252.5602,1483.4512,248.5602,1487.4512" style="stroke:#555555;stroke-width:1;"/><line style="stroke:#555555;stroke-width:1.2;" x1="248.5602" x2="248.5602" y1="1528.7617" y2="1548.7617"/><polygon fill="#555555" points="244.5602,1538.7617,248.5602,1548.7617,252.5602,1538.7617,248.5602,1542.7617" style="stroke:#555555;stroke-width:1;"/><line style="stroke:#555555;stroke-width:1.2;" x1="248.5602" x2="248.5602" y1="1269.0313" y2="1327.5195"/><polygon fill="#555555" points="244.5602,1317.5195,248.5602,1327.5195,252.5602,1317.5195,248.5602,1321.5195" style="stroke:#555555;stroke-width:1;"/><line style="stroke:#555555;stroke-width:1.2;" x1="248.5602" x2="248.5602" y1="1677.8711" y2="1697.8711"/><polygon fill="#555555" points="244.5602,1687.8711,248.5602,1697.8711,252.5602,1687.8711,248.5602,1691.8711" style="stroke:#555555;stroke-width:1;"/><line style="stroke:#555555;stroke-width:1.2;" x1="248.5602" x2="248.5602" y1="1733.1816" y2="1753.1816"/><polygon fill="#555555" points="244.5602,1743.1816,248.5602,1753.1816,252.5602,1743.1816,248.5602,1747.1816" style="stroke:#555555;stroke-width:1;"/><line style="stroke:#555555;stroke-width:1.2;" x1="248.5602" x2="248.5602" y1="1584.0723" y2="1642.5605"/><polygon fill="#555555" points="244.5602,1632.5605,248.5602,1642.5605,252.5602,1632.5605,248.5602,1636.5605" style="stroke:#555555;stroke-width:1;"/><line style="stroke:#555555;stroke-width:1.2;" x1="248.5602" x2="248.5602" y1="1882.291" y2="1902.291"/><polygon fill="#555555" points="244.5602,1892.291,248.5602,1902.291,252.5602,1892.291,248.5602,1896.291" style="stroke:#555555;stroke-width:1;"/><line style="stroke:#555555;stroke-width:1.2;" x1="248.5602" x2="248.5602" y1="1788.4922" y2="1846.9805"/><polygon fill="#555555" points="244.5602,1836.9805,248.5602,1846.9805,252.5602,1836.9805,248.5602,1840.9805" style="stroke:#555555;stroke-width:1;"/><line style="stroke:#555555;stroke-width:1.2;" x1="248.5602" x2="248.5602" y1="2031.4004" y2="2051.4004"/><polygon fill="#555555" points="244.5602,2041.4004,248.5602,2051.4004,252.5602,2041.4004,248.5602,2045.4004" style="stroke:#555555;stroke-width:1;"/><line style="stroke:#555555;stroke-width:1.2;" x1="248.5602" x2="248.5602" y1="2086.7109" y2="2106.7109"/><polygon fill="#555555" points="244.5602,2096.7109,248.5602,2106.7109,252.5602,2096.7109,248.5602,2100.7109" style="stroke:#555555;stroke-width:1;"/><line style="stroke:#555555;stroke-width:1.2;" x1="248.5602" x2="248.5602" y1="1937.6016" y2="1996.0898"/><polygon fill="#555555" points="244.5602,1986.0898,248.5602,1996.0898,252.5602,1986.0898,248.5602,1990.0898" style="stroke:#555555;stroke-width:1;"/><line style="stroke:#555555;stroke-width:1.2;" x1="248.5602" x2="248.5602" y1="2235.8203" y2="2255.8203"/><polygon fill="#555555" points="244.5602,2245.8203,248.5602,2255.8203,252.5602,2245.8203,248.5602,2249.8203" style="stroke:#555555;stroke-width:1;"/><line style="stroke:#555555;stroke-width:1.2;" x1="248.5602" x2="248.5602" y1="2291.1309" y2="2311.1309"/><polygon fill="#555555" points="244.5602,2301.1309,248.5602,2311.1309,252.5602,2301.1309,248.5602,2305.1309" style="stroke:#555555;stroke-width:1;"/><line style="stroke:#555555;stroke-width:1.2;" x1="248.5602" x2="248.5602" y1="2142.0215" y2="2200.5098"/><polygon fill="#555555" points="244.5602,2190.5098,248.5602,2200.5098,252.5602,2190.5098,248.5602,2194.5098" style="stroke:#555555;stroke-width:1;"/><line style="stroke:#555555;stroke-width:1.2;" x1="248.5602" x2="248.5602" y1="2346.4414" y2="2378.4414"/><polygon fill="#555555" points="244.5602,2368.4414,248.5602,2378.4414,252.5602,2368.4414,248.5602,2372.4414" style="stroke:#555555;stroke-width:1;"/><!--SRC=[RLNTRjis5BxFKvnbm61hTekaVsk2OKZTP4ZG9btKThkbfIEBCqMo96NF6mRqQWymx6R0zd9vadqavJXjfalfyF3xEqT11iLqOUPKCY_PqPaoQq-ZYuFfnVCnJUcjr3MxQHasg7ijGjLAlQ0JQ_Vs_59gAvpeQ2wgvSAPNjSpeuoZBy_ISwV2jw8swtYq4ShpdI-Y2d8bmuP-soDwyJ-DNfu-mvSJvynwUFaaFR7SE80RtZvE3zwU6HrA-IlJmQEzt-_Sb5gyRMMrrEmz7Jmu18SWNDZRGq6GGHfD-nS7TFFnBxhISoDS7H5_HITL1Ko1Pev5hDfFO8zUYLvNBGbhwUQFFwdudWEbXbmNnx6Wb0jDlQMHPUUD5egu4r9Dw9NKIwxFzOI0l2olngd1YfriDkdah3N6Cpa3rR-bOcTGRWn0R0C5TfqdeMkoJgv4bS- -YYz0fNZZJ2FHeEJGsmAc7ewFeSWdR0yJsqyg1tQd6krXhPSL0g55nnDIfae2JAXcBntN2Q6Va5Y1bvXB1IV7cJihhiATQD2eE55zfsKHIHSpuHZzoxL4fi0hdtfdbH7eohxlc8gHumzzl6SyyAvhWg5AuKe4i_V1oNZzpz0dR2mGUjRIEA18zLSseXNgYAnneJ5A6bBGtaS8liKxj0dEq4hMR39kiU9ivqlfAmDFDb6wH_UbUvIakwr2Ja368Z63W2yGj-WXLwwNqF9XPJehz2QxMY5TFj-8KoYJYpR0QnbbPuyC7PFY9hwomkVACwcI9viTpGdnBqYNP5tTyITMouP6h_lG8tLTdDllnXHQrZJQi1_ZE_h1zefXOZ1KfDa6Xwi-8ELL6qa_JgOm1XO1CCEX6SPBwfvf7lc1RghHjMm-5-Xn4kZpneCw- -VXvkFVI6z6zyL-4XrkLyl1ay2TLI9mvdwzbH7AQMoDAixma1FPTLnBbAgjxU1Pp5eH8eidu-YsTSR6aKhwhYIlyUNfVLEV9CpnA21VSbWRjznPUgwdSTgh-1d1RIaueNt3JimLJtCoFyDTjWXw3jq4U54RhV9fycz3EJ3yqCDu86oCwqHERhehTte7zCKE4dMcPl3hM0VZV2ljmzJUOS4E8oWQnc8rQGZy4SqHZoMAuhNtY3zDn4lCOjshsFvyAvGVoByP50HmaVVFJaklp81o9XJ281m-Ogspfw_1kaj_4HzZ6_8WlotJwOLBF35_WefoumyBQg8mc0Y0m9GC6_SUt6S9xkaA3JsSkcPlUWTT1wmNHchQpXkdgcEwBj-_0PmVhY4gLykfrBVBD6SfjQ2sdnzjanMaJQjcozD2lGaDajy3zKq2TMc2R6GUn8ZjigyNjy0GOvROC1hDKl27zPttRxe30hf1p1-nyzM6Qhc8mJ1DNhVvOFHeE7Sys9DwHDQA0wUVd4vtquWVB1vCWEwVtGQz-VZl_VW_pxy3uyCqposc5WrluRzF8cpTmSykTkya_gpnPz0uq-ts7VaDrbYNm5qQlBUW8fhuvIUgnSQdYT-68yMg3sPQAOGiiyU4rKwiunzM3OB6iawu9IR1X3lBiaXKV33sFm00]--></g></svg>