<svg xmlns="http://www.w3.org/2000/svg" xmlns:xlink="http://www.w3.org/1999/xlink" contentStyleType="text/css" data-diagram-type="ACTIVITY" height="2151px" preserveAspectRatio="none" style="width:577px;height:2151px;background:#FFFFFF;" version="1.1" viewBox="0 0 577 2151" width="577px" zoomAndPan="magnify"><title>Recruiter Flows (R1-R8) - Tinder-Style Matching App</title><defs/><g><g class="title" data-source-line="1"><text fill="#000000" font-family="sans-serif" font-size="14" font-weight="bold" lengthAdjust="spacing" textLength="386.8115" x="93.8916" y="33.5352">Recruiter Flows (R1-R8) - Tinder-Style Matching App</text></g><ellipse cx="288.7974" cy="57.4883" fill="#222222" rx="10" ry="10" style="stroke:#222222;stroke-width:1;"/><rect fill="none" height="305.041" style="stroke:#000000;stroke-width:1.5;" width="411.4141" x="83.0903" y="77.4883"/><path d="M350.1489,77.4883 L350.1489,86.9766 L340.1489,96.9766 L83.0903,96.9766" fill="none" style="stroke:#000000;stroke-width:1.5;"/><text fill="#000000" font-family="sans-serif" font-size="14" lengthAdjust="spacing" textLength="257.0586" x="86.0903" y="92.0234">R1 &#8212; Onboarding &amp; Account Creation</text><rect fill="#E8F5E9" height="35.3105" rx="12.5" ry="12.5" style="stroke:#444444;stroke-width:0.5;" width="235.7378" x="170.9285" y="113.9766"/><text fill="#000000" font-family="sans-serif" font-size="13" lengthAdjust="spacing" textLength="215.7378" x="180.9285" y="136.5449">Sign up (work email/SSO) &#8594; verify</text><rect fill="#E8F5E9" height="35.3105" rx="12.5" ry="12.5" style="stroke:#444444;stroke-width:0.5;" width="183.103" x="197.2458" y="169.2871"/><text fill="#000000" font-family="sans-serif" font-size="13" lengthAdjust="spacing" textLength="163.103" x="207.2458" y="191.8555">Choose role = *Recruiter*</text><rect fill="#E8F5E9" height="35.3105" rx="12.5" ry="12.5" style="stroke:#444444;stroke-width:0.5;" width="226.521" x="175.5369" y="224.5977"/><text fill="#000000" font-family="sans-serif" font-size="13" lengthAdjust="spacing" textLength="206.521" x="185.5369" y="247.166">Accept terms and branding rules</text><rect fill="#E8F5E9" height="35.3105" rx="12.5" ry="12.5" style="stroke:#444444;stroke-width:0.5;" width="391.4141" x="93.0903" y="279.9082"/><text fill="#000000" font-family="sans-serif" font-size="13" lengthAdjust="spacing" textLength="371.4141" x="103.0903" y="302.4766">Create company org or join existing (domain match/invite)</text><rect fill="#E8F5E9" height="35.3105" rx="12.5" ry="12.5" style="stroke:#444444;stroke-width:0.5;" width="219.6592" x="178.9678" y="335.2188"/><text fill="#000000" font-family="sans-serif" font-size="13" lengthAdjust="spacing" textLength="199.6592" x="188.9678" y="357.7871">Land on *Company Profile* (R2)</text><rect fill="none" height="249.7305" style="stroke:#000000;stroke-width:1.5;" width="555.5947" x="11" y="392.5293"/><path d="M220.9238,392.5293 L220.9238,402.0176 L210.9238,412.0176 L11,412.0176" fill="none" style="stroke:#000000;stroke-width:1.5;"/><text fill="#000000" font-family="sans-serif" font-size="14" lengthAdjust="spacing" textLength="199.9238" x="14" y="407.0645">R2 &#8212; Company &amp; Role Profile</text><rect fill="#E8F5E9" height="35.3105" rx="12.5" ry="12.5" style="stroke:#444444;stroke-width:0.5;" width="406.1025" x="85.7461" y="429.0176"/><text fill="#000000" font-family="sans-serif" font-size="13" lengthAdjust="spacing" textLength="386.1025" x="95.7461" y="451.5859">Complete company profile (mission, culture, benefits, media)</text><rect fill="#E8F5E9" height="35.3105" rx="12.5" ry="12.5" style="stroke:#444444;stroke-width:0.5;" width="410.7681" x="83.4133" y="484.3281"/><text fill="#000000" font-family="sans-serif" font-size="13" lengthAdjust="spacing" textLength="390.7681" x="93.4133" y="506.8965">Create *Role Cards* (title, location, pay band, skills, min reqs)</text><rect fill="#E8F5E9" height="35.3105" rx="12.5" ry="12.5" style="stroke:#444444;stroke-width:0.5;" width="535.5947" x="21" y="539.6387"/><text fill="#000000" font-family="sans-serif" font-size="13" lengthAdjust="spacing" textLength="515.5947" x="31" y="562.207">Define target preferences (majors, grad windows, locations, experience/seniority)</text><rect fill="#E8F5E9" height="35.3105" rx="12.5" ry="12.5" style="stroke:#444444;stroke-width:0.5;" width="215.2095" x="181.1926" y="594.9492"/><text fill="#000000" font-family="sans-serif" font-size="13" lengthAdjust="spacing" textLength="195.2095" x="191.1926" y="617.5176">Save &#8594; *Talent Discovery* (R3)</text><rect fill="none" height="313.7305" style="stroke:#000000;stroke-width:1.5;" width="445.8781" x="89.0984" y="652.2598"/><path d="M323.2488,652.2598 L323.2488,661.748 L313.2488,671.748 L89.0984,671.748" fill="none" style="stroke:#000000;stroke-width:1.5;"/><text fill="#000000" font-family="sans-serif" font-size="14" lengthAdjust="spacing" textLength="224.1504" x="92.0984" y="666.7949">R3 &#8212; Talent Discovery &amp; Swiping</text><rect fill="#E8F5E9" height="35.3105" rx="12.5" ry="12.5" style="stroke:#444444;stroke-width:0.5;" width="276.6294" x="150.4827" y="688.748"/><text fill="#000000" font-family="sans-serif" font-size="13" lengthAdjust="spacing" textLength="256.6294" x="160.4827" y="711.3164">Swipe through student/job-seeker cards</text><rect fill="#E8F5E9" height="35.3105" rx="12.5" ry="12.5" style="stroke:#444444;stroke-width:0.5;" width="336.1323" x="120.7312" y="744.0586"/><text fill="#000000" font-family="sans-serif" font-size="13" lengthAdjust="spacing" textLength="316.1323" x="130.7312" y="766.627">Tap for full profile (video, projects, skills, resume)</text><rect fill="#E8F5E9" height="35.3105" rx="12.5" ry="12.5" style="stroke:#444444;stroke-width:0.5;" width="379.3979" x="99.0984" y="799.3691"/><text fill="#000000" font-family="sans-serif" font-size="13" lengthAdjust="spacing" textLength="359.3979" x="109.0984" y="821.9375">Right-swipe = interested; Left = pass; *Save* to shortlist</text><polygon fill="#E8F5E9" points="225.7017,854.6797,351.8931,854.6797,363.8931,866.6797,351.8931,878.6797,225.7017,878.6797,213.7017,866.6797,225.7017,854.6797" style="stroke:#444444;stroke-width:0.5;"/><text fill="#000000" font-family="sans-serif" font-size="13" lengthAdjust="spacing" textLength="126.1914" x="225.7017" y="871.5928">Mutual right-swipe?</text><text fill="#000000" font-family="sans-serif" font-size="11" lengthAdjust="spacing" textLength="17.4829" x="196.2188" y="864.3594">yes</text><text fill="#000000" font-family="sans-serif" font-size="11" lengthAdjust="spacing" textLength="13.5835" x="363.8931" y="864.3594">no</text><rect fill="#E8F5E9" height="35.3105" rx="12.5" ry="12.5" style="stroke:#444444;stroke-width:0.5;" width="144.4585" x="110.432" y="888.6797"/><text fill="#000000" font-family="sans-serif" font-size="13" lengthAdjust="spacing" textLength="124.4585" x="120.432" y="911.248">Create *Match* (R4)</text><rect fill="#E8F5E9" height="35.3105" rx="12.5" ry="12.5" style="stroke:#444444;stroke-width:0.5;" width="240.0859" x="274.8905" y="888.6797"/><text fill="#000000" font-family="sans-serif" font-size="13" lengthAdjust="spacing" textLength="220.0859" x="284.8905" y="911.248">Continue browsing or adjust filters</text><polygon fill="#E8F5E9" points="288.7974,929.9902,300.7974,941.9902,288.7974,953.9902,276.7974,941.9902,288.7974,929.9902" style="stroke:#444444;stroke-width:0.5;"/><rect fill="none" height="194.4199" style="stroke:#000000;stroke-width:1.5;" width="451.6455" x="62.9746" y="975.9902"/><path d="M234.9658,975.9902 L234.9658,985.4785 L224.9658,995.4785 L62.9746,995.4785" fill="none" style="stroke:#000000;stroke-width:1.5;"/><text fill="#000000" font-family="sans-serif" font-size="14" lengthAdjust="spacing" textLength="161.9912" x="65.9746" y="990.5254">R4 &#8212; Match &amp; Outreach</text><rect fill="#E8F5E9" height="35.3105" rx="12.5" ry="12.5" style="stroke:#444444;stroke-width:0.5;" width="431.6455" x="72.9746" y="1012.4785"/><text fill="#000000" font-family="sans-serif" font-size="13" lengthAdjust="spacing" textLength="411.6455" x="82.9746" y="1035.0469">"It&#8217;s a match!" &#8594; use templates (intro, role pitch, scheduling link)</text><rect fill="#E8F5E9" height="35.3105" rx="12.5" ry="12.5" style="stroke:#444444;stroke-width:0.5;" width="291.521" x="143.0369" y="1067.7891"/><text fill="#000000" font-family="sans-serif" font-size="13" lengthAdjust="spacing" textLength="271.521" x="153.0369" y="1090.3574">Open *Chat* (R5) or propose interview (R6)</text><rect fill="#E8F5E9" height="35.3105" rx="12.5" ry="12.5" style="stroke:#444444;stroke-width:0.5;" width="287.7632" x="144.9158" y="1123.0996"/><text fill="#000000" font-family="sans-serif" font-size="13" lengthAdjust="spacing" textLength="267.7632" x="154.9158" y="1145.668">SLA reminder if no response within N days</text><rect fill="none" height="194.4199" style="stroke:#000000;stroke-width:1.5;" width="289.3423" x="144.1262" y="1180.4102"/><path d="M336.2083,1180.4102 L336.2083,1189.8984 L326.2083,1199.8984 L144.1262,1199.8984" fill="none" style="stroke:#000000;stroke-width:1.5;"/><text fill="#000000" font-family="sans-serif" font-size="14" lengthAdjust="spacing" textLength="182.082" x="147.1262" y="1194.9453">R5 &#8212; Chat &amp; Collaboration</text><rect fill="#E8F5E9" height="35.3105" rx="12.5" ry="12.5" style="stroke:#444444;stroke-width:0.5;" width="254.9141" x="161.3403" y="1216.8984"/><text fill="#000000" font-family="sans-serif" font-size="13" lengthAdjust="spacing" textLength="234.9141" x="171.3403" y="1239.4668">Chat with candidate; share links/files</text><rect fill="#E8F5E9" height="35.3105" rx="12.5" ry="12.5" style="stroke:#444444;stroke-width:0.5;" width="269.3423" x="154.1262" y="1272.209"/><text fill="#000000" font-family="sans-serif" font-size="13" lengthAdjust="spacing" textLength="249.3423" x="164.1262" y="1294.7773">Mention teammates or hiring managers</text><rect fill="#E8F5E9" height="35.3105" rx="12.5" ry="12.5" style="stroke:#444444;stroke-width:0.5;" width="246.5605" x="165.5171" y="1327.5195"/><text fill="#000000" font-family="sans-serif" font-size="13" lengthAdjust="spacing" textLength="226.5605" x="175.5171" y="1350.0879">Hand-off to ATS or continue in-app</text><rect fill="none" height="249.7305" style="stroke:#000000;stroke-width:1.5;" width="494.3652" x="41.6147" y="1384.8301"/><path d="M258.6616,1384.8301 L258.6616,1394.3184 L248.6616,1404.3184 L41.6147,1404.3184" fill="none" style="stroke:#000000;stroke-width:1.5;"/><text fill="#000000" font-family="sans-serif" font-size="14" lengthAdjust="spacing" textLength="207.0469" x="44.6147" y="1399.3652">R6 &#8212; Scheduling &amp; ATS Bridge</text><rect fill="#E8F5E9" height="35.3105" rx="12.5" ry="12.5" style="stroke:#444444;stroke-width:0.5;" width="320.3267" x="128.634" y="1421.3184"/><text fill="#000000" font-family="sans-serif" font-size="13" lengthAdjust="spacing" textLength="300.3267" x="138.634" y="1443.8867">Choose interview template (screen/tech/onsite)</text><rect fill="#E8F5E9" height="35.3105" rx="12.5" ry="12.5" style="stroke:#444444;stroke-width:0.5;" width="282.4502" x="147.5723" y="1476.6289"/><text fill="#000000" font-family="sans-serif" font-size="13" lengthAdjust="spacing" textLength="262.4502" x="157.5723" y="1499.1973">Select interviewers and available windows</text><rect fill="#E8F5E9" height="35.3105" rx="12.5" ry="12.5" style="stroke:#444444;stroke-width:0.5;" width="342.8164" x="117.3892" y="1531.9395"/><text fill="#000000" font-family="sans-serif" font-size="13" lengthAdjust="spacing" textLength="322.8164" x="127.3892" y="1554.5078">Candidate confirms &#8594; calendar invites + video link</text><rect fill="#E8F5E9" height="35.3105" rx="12.5" ry="12.5" style="stroke:#444444;stroke-width:0.5;" width="474.3652" x="51.6147" y="1587.25"/><text fill="#000000" font-family="sans-serif" font-size="13" lengthAdjust="spacing" textLength="454.3652" x="61.6147" y="1609.8184">If ATS connected &#8594; create candidate, stage, and interview automatically</text><rect fill="none" height="249.7305" style="stroke:#000000;stroke-width:1.5;" width="451.9312" x="62.8318" y="1644.5605"/><path d="M249.0554,1644.5605 L249.0554,1654.0488 L239.0554,1664.0488 L62.8318,1664.0488" fill="none" style="stroke:#000000;stroke-width:1.5;"/><text fill="#000000" font-family="sans-serif" font-size="14" lengthAdjust="spacing" textLength="176.2236" x="65.8318" y="1659.0957">R7 &#8212; Events Management</text><rect fill="#E8F5E9" height="35.3105" rx="12.5" ry="12.5" style="stroke:#444444;stroke-width:0.5;" width="431.9312" x="72.8318" y="1681.0488"/><text fill="#000000" font-family="sans-serif" font-size="13" lengthAdjust="spacing" textLength="411.9312" x="82.8318" y="1703.6172">Create events (career fair, info session) with audience &amp; RSVP cap</text><rect fill="#E8F5E9" height="35.3105" rx="12.5" ry="12.5" style="stroke:#444444;stroke-width:0.5;" width="248.1094" x="164.7427" y="1736.3594"/><text fill="#000000" font-family="sans-serif" font-size="13" lengthAdjust="spacing" textLength="228.1094" x="174.7427" y="1758.9277">Publish &#8594; followers/targets notified</text><rect fill="#E8F5E9" height="35.3105" rx="12.5" ry="12.5" style="stroke:#444444;stroke-width:0.5;" width="232.5322" x="172.5313" y="1791.6699"/><text fill="#000000" font-family="sans-serif" font-size="13" lengthAdjust="spacing" textLength="212.5322" x="182.5313" y="1814.2383">Track attendance via QR check-in</text><rect fill="#E8F5E9" height="35.3105" rx="12.5" ry="12.5" style="stroke:#444444;stroke-width:0.5;" width="238.1309" x="169.7319" y="1846.9805"/><text fill="#000000" font-family="sans-serif" font-size="13" lengthAdjust="spacing" textLength="218.1309" x="179.7319" y="1869.5488">Export attendees; send follow-ups</text><rect fill="none" height="194.4199" style="stroke:#000000;stroke-width:1.5;" width="381.9736" x="97.8105" y="1904.291"/><path d="M288.5527,1904.291 L288.5527,1913.7793 L278.5527,1923.7793 L97.8105,1923.7793" fill="none" style="stroke:#000000;stroke-width:1.5;"/><text fill="#000000" font-family="sans-serif" font-size="14" lengthAdjust="spacing" textLength="180.7422" x="100.8105" y="1918.8262">R8 &#8212; Pipeline &amp; Outcomes</text><rect fill="#E8F5E9" height="35.3105" rx="12.5" ry="12.5" style="stroke:#444444;stroke-width:0.5;" width="361.9736" x="107.8105" y="1940.7793"/><text fill="#000000" font-family="sans-serif" font-size="13" lengthAdjust="spacing" textLength="341.9736" x="117.8105" y="1963.3477">Track stages (new, contacted, screening, onsite, offer)</text><rect fill="#E8F5E9" height="35.3105" rx="12.5" ry="12.5" style="stroke:#444444;stroke-width:0.5;" width="280.6094" x="148.4927" y="1996.0898"/><text fill="#000000" font-family="sans-serif" font-size="13" lengthAdjust="spacing" textLength="260.6094" x="158.4927" y="2018.6582">Mark outcomes; trigger feedback surveys</text><rect fill="#E8F5E9" height="35.3105" rx="12.5" ry="12.5" style="stroke:#444444;stroke-width:0.5;" width="308.5771" x="134.5088" y="2051.4004"/><text fill="#000000" font-family="sans-serif" font-size="13" lengthAdjust="spacing" textLength="288.5771" x="144.5088" y="2073.9688">Close role; export matched candidates to ATS</text><ellipse cx="288.7974" cy="2129.7109" fill="none" rx="11" ry="11" style="stroke:#222222;stroke-width:1;"/><ellipse cx="288.7974" cy="2129.7109" fill="#222222" rx="6" ry="6" style="stroke:#222222;stroke-width:1;"/><line style="stroke:#555555;stroke-width:1.2;" x1="288.7974" x2="288.7974" y1="149.2871" y2="169.2871"/><polygon fill="#555555" points="284.7974,159.2871,288.7974,169.2871,292.7974,159.2871,288.7974,163.2871" style="stroke:#555555;stroke-width:1;"/><line style="stroke:#555555;stroke-width:1.2;" x1="288.7974" x2="288.7974" y1="204.5977" y2="224.5977"/><polygon fill="#555555" points="284.7974,214.5977,288.7974,224.5977,292.7974,214.5977,288.7974,218.5977" style="stroke:#555555;stroke-width:1;"/><line style="stroke:#555555;stroke-width:1.2;" x1="288.7974" x2="288.7974" y1="259.9082" y2="279.9082"/><polygon fill="#555555" points="284.7974,269.9082,288.7974,279.9082,292.7974,269.9082,288.7974,273.9082" style="stroke:#555555;stroke-width:1;"/><line style="stroke:#555555;stroke-width:1.2;" x1="288.7974" x2="288.7974" y1="315.2188" y2="335.2188"/><polygon fill="#555555" points="284.7974,325.2188,288.7974,335.2188,292.7974,325.2188,288.7974,329.2188" style="stroke:#555555;stroke-width:1;"/><line style="stroke:#555555;stroke-width:1.2;" x1="288.7974" x2="288.7974" y1="67.4883" y2="113.9766"/><polygon fill="#555555" points="284.7974,103.9766,288.7974,113.9766,292.7974,103.9766,288.7974,107.9766" style="stroke:#555555;stroke-width:1;"/><line style="stroke:#555555;stroke-width:1.2;" x1="288.7974" x2="288.7974" y1="464.3281" y2="484.3281"/><polygon fill="#555555" points="284.7974,474.3281,288.7974,484.3281,292.7974,474.3281,288.7974,478.3281" style="stroke:#555555;stroke-width:1;"/><line style="stroke:#555555;stroke-width:1.2;" x1="288.7974" x2="288.7974" y1="519.6387" y2="539.6387"/><polygon fill="#555555" points="284.7974,529.6387,288.7974,539.6387,292.7974,529.6387,288.7974,533.6387" style="stroke:#555555;stroke-width:1;"/><line style="stroke:#555555;stroke-width:1.2;" x1="288.7974" x2="288.7974" y1="574.9492" y2="594.9492"/><polygon fill="#555555" points="284.7974,584.9492,288.7974,594.9492,292.7974,584.9492,288.7974,588.9492" style="stroke:#555555;stroke-width:1;"/><line style="stroke:#555555;stroke-width:1.2;" x1="288.7974" x2="288.7974" y1="370.5293" y2="429.0176"/><polygon fill="#555555" points="284.7974,419.0176,288.7974,429.0176,292.7974,419.0176,288.7974,423.0176" style="stroke:#555555;stroke-width:1;"/><line style="stroke:#555555;stroke-width:1.2;" x1="288.7974" x2="288.7974" y1="724.0586" y2="744.0586"/><polygon fill="#555555" points="284.7974,734.0586,288.7974,744.0586,292.7974,734.0586,288.7974,738.0586" style="stroke:#555555;stroke-width:1;"/><line style="stroke:#555555;stroke-width:1.2;" x1="288.7974" x2="288.7974" y1="779.3691" y2="799.3691"/><polygon fill="#555555" points="284.7974,789.3691,288.7974,799.3691,292.7974,789.3691,288.7974,793.3691" style="stroke:#555555;stroke-width:1;"/><line style="stroke:#555555;stroke-width:1.2;" x1="213.7017" x2="182.6613" y1="866.6797" y2="866.6797"/><line style="stroke:#555555;stroke-width:1.2;" x1="182.6613" x2="182.6613" y1="866.6797" y2="888.6797"/><polygon fill="#555555" points="178.6613,878.6797,182.6613,888.6797,186.6613,878.6797,182.6613,882.6797" style="stroke:#555555;stroke-width:1;"/><line style="stroke:#555555;stroke-width:1.2;" x1="363.8931" x2="394.9335" y1="866.6797" y2="866.6797"/><line style="stroke:#555555;stroke-width:1.2;" x1="394.9335" x2="394.9335" y1="866.6797" y2="888.6797"/><polygon fill="#555555" points="390.9335,878.6797,394.9335,888.6797,398.9335,878.6797,394.9335,882.6797" style="stroke:#555555;stroke-width:1;"/><line style="stroke:#555555;stroke-width:1.2;" x1="182.6613" x2="182.6613" y1="923.9902" y2="941.9902"/><line style="stroke:#555555;stroke-width:1.2;" x1="182.6613" x2="276.7974" y1="941.9902" y2="941.9902"/><polygon fill="#555555" points="266.7974,937.9902,276.7974,941.9902,266.7974,945.9902,270.7974,941.9902" style="stroke:#555555;stroke-width:1;"/><line style="stroke:#555555;stroke-width:1.2;" x1="394.9335" x2="394.9335" y1="923.9902" y2="941.9902"/><line style="stroke:#555555;stroke-width:1.2;" x1="394.9335" x2="300.7974" y1="941.9902" y2="941.9902"/><polygon fill="#555555" points="310.7974,937.9902,300.7974,941.9902,310.7974,945.9902,306.7974,941.9902" style="stroke:#555555;stroke-width:1;"/><line style="stroke:#555555;stroke-width:1.2;" x1="288.7974" x2="288.7974" y1="834.6797" y2="854.6797"/><polygon fill="#555555" points="284.7974,844.6797,288.7974,854.6797,292.7974,844.6797,288.7974,848.6797" style="stroke:#555555;stroke-width:1;"/><line style="stroke:#555555;stroke-width:1.2;" x1="288.7974" x2="288.7974" y1="630.2598" y2="688.748"/><polygon fill="#555555" points="284.7974,678.748,288.7974,688.748,292.7974,678.748,288.7974,682.748" style="stroke:#555555;stroke-width:1;"/><line style="stroke:#555555;stroke-width:1.2;" x1="288.7974" x2="288.7974" y1="1047.7891" y2="1067.7891"/><polygon fill="#555555" points="284.7974,1057.7891,288.7974,1067.7891,292.7974,1057.7891,288.7974,1061.7891" style="stroke:#555555;stroke-width:1;"/><line style="stroke:#555555;stroke-width:1.2;" x1="288.7974" x2="288.7974" y1="1103.0996" y2="1123.0996"/><polygon fill="#555555" points="284.7974,1113.0996,288.7974,1123.0996,292.7974,1113.0996,288.7974,1117.0996" style="stroke:#555555;stroke-width:1;"/><line style="stroke:#555555;stroke-width:1.2;" x1="288.7974" x2="288.7974" y1="953.9902" y2="1012.4785"/><polygon fill="#555555" points="284.7974,1002.4785,288.7974,1012.4785,292.7974,1002.4785,288.7974,1006.4785" style="stroke:#555555;stroke-width:1;"/><line style="stroke:#555555;stroke-width:1.2;" x1="288.7974" x2="288.7974" y1="1252.209" y2="1272.209"/><polygon fill="#555555" points="284.7974,1262.209,288.7974,1272.209,292.7974,1262.209,288.7974,1266.209" style="stroke:#555555;stroke-width:1;"/><line style="stroke:#555555;stroke-width:1.2;" x1="288.7974" x2="288.7974" y1="1307.5195" y2="1327.5195"/><polygon fill="#555555" points="284.7974,1317.5195,288.7974,1327.5195,292.7974,1317.5195,288.7974,1321.5195" style="stroke:#555555;stroke-width:1;"/><line style="stroke:#555555;stroke-width:1.2;" x1="288.7974" x2="288.7974" y1="1158.4102" y2="1216.8984"/><polygon fill="#555555" points="284.7974,1206.8984,288.7974,1216.8984,292.7974,1206.8984,288.7974,1210.8984" style="stroke:#555555;stroke-width:1;"/><line style="stroke:#555555;stroke-width:1.2;" x1="288.7974" x2="288.7974" y1="1456.6289" y2="1476.6289"/><polygon fill="#555555" points="284.7974,1466.6289,288.7974,1476.6289,292.7974,1466.6289,288.7974,1470.6289" style="stroke:#555555;stroke-width:1;"/><line style="stroke:#555555;stroke-width:1.2;" x1="288.7974" x2="288.7974" y1="1511.9395" y2="1531.9395"/><polygon fill="#555555" points="284.7974,1521.9395,288.7974,1531.9395,292.7974,1521.9395,288.7974,1525.9395" style="stroke:#555555;stroke-width:1;"/><line style="stroke:#555555;stroke-width:1.2;" x1="288.7974" x2="288.7974" y1="1567.25" y2="1587.25"/><polygon fill="#555555" points="284.7974,1577.25,288.7974,1587.25,292.7974,1577.25,288.7974,1581.25" style="stroke:#555555;stroke-width:1;"/><line style="stroke:#555555;stroke-width:1.2;" x1="288.7974" x2="288.7974" y1="1362.8301" y2="1421.3184"/><polygon fill="#555555" points="284.7974,1411.3184,288.7974,1421.3184,292.7974,1411.3184,288.7974,1415.3184" style="stroke:#555555;stroke-width:1;"/><line style="stroke:#555555;stroke-width:1.2;" x1="288.7974" x2="288.7974" y1="1716.3594" y2="1736.3594"/><polygon fill="#555555" points="284.7974,1726.3594,288.7974,1736.3594,292.7974,1726.3594,288.7974,1730.3594" style="stroke:#555555;stroke-width:1;"/><line style="stroke:#555555;stroke-width:1.2;" x1="288.7974" x2="288.7974" y1="1771.6699" y2="1791.6699"/><polygon fill="#555555" points="284.7974,1781.6699,288.7974,1791.6699,292.7974,1781.6699,288.7974,1785.6699" style="stroke:#555555;stroke-width:1;"/><line style="stroke:#555555;stroke-width:1.2;" x1="288.7974" x2="288.7974" y1="1826.9805" y2="1846.9805"/><polygon fill="#555555" points="284.7974,1836.9805,288.7974,1846.9805,292.7974,1836.9805,288.7974,1840.9805" style="stroke:#555555;stroke-width:1;"/><line style="stroke:#555555;stroke-width:1.2;" x1="288.7974" x2="288.7974" y1="1622.5605" y2="1681.0488"/><polygon fill="#555555" points="284.7974,1671.0488,288.7974,1681.0488,292.7974,1671.0488,288.7974,1675.0488" style="stroke:#555555;stroke-width:1;"/><line style="stroke:#555555;stroke-width:1.2;" x1="288.7974" x2="288.7974" y1="1976.0898" y2="1996.0898"/><polygon fill="#555555" points="284.7974,1986.0898,288.7974,1996.0898,292.7974,1986.0898,288.7974,1990.0898" style="stroke:#555555;stroke-width:1;"/><line style="stroke:#555555;stroke-width:1.2;" x1="288.7974" x2="288.7974" y1="2031.4004" y2="2051.4004"/><polygon fill="#555555" points="284.7974,2041.4004,288.7974,2051.4004,292.7974,2041.4004,288.7974,2045.4004" style="stroke:#555555;stroke-width:1;"/><line style="stroke:#555555;stroke-width:1.2;" x1="288.7974" x2="288.7974" y1="1882.291" y2="1940.7793"/><polygon fill="#555555" points="284.7974,1930.7793,288.7974,1940.7793,292.7974,1930.7793,288.7974,1934.7793" style="stroke:#555555;stroke-width:1;"/><line style="stroke:#555555;stroke-width:1.2;" x1="288.7974" x2="288.7974" y1="2086.7109" y2="2118.7109"/><polygon fill="#555555" points="284.7974,2108.7109,288.7974,2118.7109,292.7974,2108.7109,288.7974,2112.7109" style="stroke:#555555;stroke-width:1;"/><!--SRC=[PLNHJYD747pdApf4GhPZnmAE2pbqYZWEb9EEG6oKz_5khpruTsOpCslZH2VTKpuWoaj-xxuarRrhx1oMCFPEJtTrTNKvsLGoJJWBZKqSwARqwqYzoV5eSjwd4JrObtCOJTC6ORScPGlhvdHPrmS7SMbTROAfQ6QovJpunkLNllI1lhtHrrv4N9ZSh-LgOSh8UoScItPbquR-F21wztMYw_ERi-iVSN8PWbzt3y_q9U4-05ptz9M-yFJ6kpIrVp0TdnvysgkaAHuMDbiwZf6Elpz13yc4T720W6IJzOuE9yVqvVC_TETcteHS41_HPPO1KwAhm4QY3XNicwcTEsfgwgrzM19NnfRZwVIkJr_- -fjM76onkP2uguNtaIbuKFYM1iza3_GKoRbEXEzL9EDocWMyI-7Gb1pR35AOAVDLRTo6V9ZZZnwzTSHFDYQ9xkKU21nLCgInTI2L-thxesH5RuEhxlvzy8KjUO0vdo3aq_y9E542jh57D17StPMkSpaiUGzHtHvJhx8n8isGigPCJU0XpTXnOLCSKiMvDVtzXWQQ-mf4Hu19eiKXbJvJbeTKcmsqvV8XOOfbAIdGOE3VOvlbFH8x9inmpWaOkE30BcC8k3AFFk32F9YS83oeB-vIuoC_rPYGH8yZE-i3DDXcdPeLwmW73wPaZFszZPd7F3T2sEbBmawLiA-3mTnqRMkCPYiNV0FO1VGzNr1CJOxuyQEVZIBp4hkN2GyAuS7KL632HLEMEsvNDcS_bE-Fd0cXMrO2nwRgXZsnyqKQHQtrbgo3hZWcpY_e8nS9ZseJumKDfCi19O_Lz26L495SjmNrRflKc9B2Bj5FVS1cHxqDnpwYzWQebY2ylDBoZEMcdlFRAAoYTGr3q-1VL8gcJFxOn4Je2TYqNuRUYwzPVQMiQdvGUTSaLCmM7PU77zANp_zYNrgvVtEe0sjGF36a2MZG09eFu4lthhO80sFPWlEc52HuMxQKtTKiox4mIHevwmj8a5pBqYg1AyjhdBpkzF7n4enNQen2cFCoW1ggOYWjmI3f5yhD9huGobcxMIY4Zc1RfPdviEyeUYGve0LmagEF2_7Em0etZaK8hKHk8Hx9cjXKbVOBr0iRfBNAE3Flk7tpCpADV578h2yVfXAMRSTYtSZKzGkShnNdTCVLaTvy5sm-VxQ0rjHs_6o9frxC0hCR9uOFWPLd7vfo2TtkhW2X6fvPmJdDhEJjehOMiML0u1PMt55cdCcQvGRCgyD5-evqBvGWlVYXKBIuvL2Ey_PQvw3Rf9120aT31R1hmZG9BfeigfIR5xpyeBnShq1zX3A5v0gVjuoq9RWzxc6R6G8fZ0r3L2YmQQpUs6ydR9fSxKSSTlhRFQ3L2l- -cM4R5ugwW4Qyy3HkFIv2RCaM5kkiDX7mUqac9M54KgsieLydXC5bov5r6dJzL6F1koY6Ue03FRUfHqtzKgRdskOz5hyKUzNbWz5px1fjoof_wDFnUgYACaAsh9XC7wePKZjy_2zWpAq6RWr-AdsNxu8IN6OkB37dCytQX1LlEWMKsv_D2x5hwKAt7IDzdcFiPArDnEJh_m00]--></g></svg>