<svg xmlns="http://www.w3.org/2000/svg" xmlns:xlink="http://www.w3.org/1999/xlink" contentStyleType="text/css" data-diagram-type="ACTIVITY" height="2538px" preserveAspectRatio="none" style="width:460px;height:2538px;background:#FFFFFF;" version="1.1" viewBox="0 0 460 2538" width="460px" zoomAndPan="magnify"><title>Student Flows (S1-S9) - Tinder-Style Matching App</title><defs/><g><g class="title" data-source-line="1"><text fill="#000000" font-family="sans-serif" font-size="14" font-weight="bold" lengthAdjust="spacing" textLength="373.0371" x="42.1074" y="33.5352">Student Flows (S1-S9) - Tinder-Style Matching App</text></g><ellipse cx="209.1829" cy="57.4883" fill="#222222" rx="10" ry="10" style="stroke:#222222;stroke-width:1;"/><rect fill="#E3F2FD" height="35.3105" rx="12.5" ry="12.5" style="stroke:#444444;stroke-width:0.5;" width="196.2744" x="111.0457" y="87.4883"/><text fill="#000000" font-family="sans-serif" font-size="13" lengthAdjust="spacing" textLength="176.2744" x="121.0457" y="110.0566">Launch app &#8594; *Get started*</text><rect fill="#E3F2FD" height="35.3105" rx="12.5" ry="12.5" style="stroke:#444444;stroke-width:0.5;" width="298.8018" x="59.782" y="142.7988"/><text fill="#000000" font-family="sans-serif" font-size="13" lengthAdjust="spacing" textLength="278.8018" x="69.782" y="165.3672">Sign up (school email or SSO) &#8594; verify email</text><rect fill="#E3F2FD" height="35.3105" rx="12.5" ry="12.5" style="stroke:#444444;stroke-width:0.5;" width="174.6987" x="121.8335" y="198.1094"/><text fill="#000000" font-family="sans-serif" font-size="13" lengthAdjust="spacing" textLength="154.6987" x="131.8335" y="220.6777">Choose role = *Student*</text><rect fill="#E3F2FD" height="35.3105" rx="12.5" ry="12.5" style="stroke:#444444;stroke-width:0.5;" width="237.8579" x="90.2539" y="253.4199"/><text fill="#000000" font-family="sans-serif" font-size="13" lengthAdjust="spacing" textLength="217.8579" x="100.2539" y="275.9883">Review &amp; accept terms and privacy</text><rect fill="#E3F2FD" height="35.3105" rx="12.5" ry="12.5" style="stroke:#444444;stroke-width:0.5;" width="194.459" x="111.9534" y="308.7305"/><text fill="#000000" font-family="sans-serif" font-size="13" lengthAdjust="spacing" textLength="174.459" x="121.9534" y="331.2988">Land on *Profile Setup* (S2)</text><rect fill="none" height="360.3516" style="stroke:#000000;stroke-width:1.5;" width="355.7261" x="31.3198" y="354.041"/><path d="M294.5024,354.041 L294.5024,363.5293 L284.5024,373.5293 L31.3198,373.5293" fill="none" style="stroke:#000000;stroke-width:1.5;"/><text fill="#000000" font-family="sans-serif" font-size="14" lengthAdjust="spacing" textLength="253.1826" x="34.3198" y="368.5762">S2 - Profile Setup (Dynamic Portfolio)</text><rect fill="#E3F2FD" height="35.3105" rx="12.5" ry="12.5" style="stroke:#444444;stroke-width:0.5;" width="307.2314" x="55.5671" y="390.5293"/><text fill="#000000" font-family="sans-serif" font-size="13" lengthAdjust="spacing" textLength="287.2314" x="65.5671" y="413.0977">Enter basics (major, grad year, location prefs)</text><rect fill="#E3F2FD" height="35.3105" rx="12.5" ry="12.5" style="stroke:#444444;stroke-width:0.5;" width="254.6157" x="81.875" y="445.8398"/><text fill="#000000" font-family="sans-serif" font-size="13" lengthAdjust="spacing" textLength="234.6157" x="91.875" y="468.4082">Add skills, interests, desired job type</text><rect fill="#E3F2FD" height="35.3105" rx="12.5" ry="12.5" style="stroke:#444444;stroke-width:0.5;" width="280.876" x="68.7449" y="501.1504"/><text fill="#000000" font-family="sans-serif" font-size="13" lengthAdjust="spacing" textLength="260.876" x="78.7449" y="523.7188">Attach media (intro video, links, projects)</text><rect fill="#E3F2FD" height="35.3105" rx="12.5" ry="12.5" style="stroke:#444444;stroke-width:0.5;" width="179.3896" x="119.488" y="556.4609"/><text fill="#000000" font-family="sans-serif" font-size="13" lengthAdjust="spacing" textLength="159.3896" x="129.488" y="579.0293">Upload resume (optional)</text><rect fill="#E3F2FD" height="35.3105" rx="12.5" ry="12.5" style="stroke:#444444;stroke-width:0.5;" width="335.7261" x="41.3198" y="611.7715"/><text fill="#000000" font-family="sans-serif" font-size="13" lengthAdjust="spacing" textLength="315.7261" x="51.3198" y="634.3398">Set swipe preferences (industries, relocation, visa)</text><rect fill="#E3F2FD" height="35.3105" rx="12.5" ry="12.5" style="stroke:#444444;stroke-width:0.5;" width="207.7129" x="105.3264" y="667.082"/><text fill="#000000" font-family="sans-serif" font-size="13" lengthAdjust="spacing" textLength="187.7129" x="115.3264" y="689.6504">Save &#8594; go to *Discovery* (S3)</text><rect fill="none" height="313.7305" style="stroke:#000000;stroke-width:1.5;" width="438.252" x="11" y="724.3926"/><path d="M191.1533,724.3926 L191.1533,733.8809 L181.1533,743.8809 L11,743.8809" fill="none" style="stroke:#000000;stroke-width:1.5;"/><text fill="#000000" font-family="sans-serif" font-size="14" lengthAdjust="spacing" textLength="170.1533" x="14" y="738.9277">S3 - Discovery &amp; Swiping</text><rect fill="#E3F2FD" height="35.3105" rx="12.5" ry="12.5" style="stroke:#444444;stroke-width:0.5;" width="179.834" x="119.2659" y="760.8809"/><text fill="#000000" font-family="sans-serif" font-size="13" lengthAdjust="spacing" textLength="159.834" x="129.2659" y="783.4492">View company/role cards</text><rect fill="#E3F2FD" height="35.3105" rx="12.5" ry="12.5" style="stroke:#444444;stroke-width:0.5;" width="344.8096" x="36.7781" y="816.1914"/><text fill="#000000" font-family="sans-serif" font-size="13" lengthAdjust="spacing" textLength="324.8096" x="46.7781" y="838.7598">Swipe right = interested; left = pass; tap for details</text><rect fill="#E3F2FD" height="35.3105" rx="12.5" ry="12.5" style="stroke:#444444;stroke-width:0.5;" width="265.8701" x="76.2478" y="871.502"/><text fill="#000000" font-family="sans-serif" font-size="13" lengthAdjust="spacing" textLength="245.8701" x="86.2478" y="894.0703">Optionally follow companies for events</text><polygon fill="#E3F2FD" points="146.0872,926.8125,272.2786,926.8125,284.2786,938.8125,272.2786,950.8125,146.0872,950.8125,134.0872,938.8125,146.0872,926.8125" style="stroke:#444444;stroke-width:0.5;"/><text fill="#000000" font-family="sans-serif" font-size="13" lengthAdjust="spacing" textLength="126.1914" x="146.0872" y="943.7256">Mutual right-swipe?</text><text fill="#000000" font-family="sans-serif" font-size="11" lengthAdjust="spacing" textLength="17.4829" x="116.6042" y="936.4922">yes</text><text fill="#000000" font-family="sans-serif" font-size="11" lengthAdjust="spacing" textLength="13.5835" x="284.2786" y="936.4922">no</text><rect fill="#E3F2FD" height="35.3105" rx="12.5" ry="12.5" style="stroke:#444444;stroke-width:0.5;" width="143.2397" x="31" y="960.8125"/><text fill="#000000" font-family="sans-serif" font-size="13" lengthAdjust="spacing" textLength="123.2397" x="41" y="983.3809">Create *Match* (S4)</text><rect fill="#E3F2FD" height="35.3105" rx="12.5" ry="12.5" style="stroke:#444444;stroke-width:0.5;" width="243.0122" x="194.2397" y="960.8125"/><text fill="#000000" font-family="sans-serif" font-size="13" lengthAdjust="spacing" textLength="223.0122" x="204.2397" y="983.3809">Return to discovery or adjust filters</text><polygon fill="#E3F2FD" points="209.1829,1002.123,221.1829,1014.123,209.1829,1026.123,197.1829,1014.123,209.1829,1002.123" style="stroke:#444444;stroke-width:0.5;"/><rect fill="none" height="194.4199" style="stroke:#000000;stroke-width:1.5;" width="326.3618" x="46.002" y="1048.123"/><path d="M235.2949,1048.123 L235.2949,1057.6113 L225.2949,1067.6113 L46.002,1067.6113" fill="none" style="stroke:#000000;stroke-width:1.5;"/><text fill="#000000" font-family="sans-serif" font-size="14" lengthAdjust="spacing" textLength="179.293" x="49.002" y="1062.6582">S4 - Match &amp; First Contact</text><rect fill="#E3F2FD" height="35.3105" rx="12.5" ry="12.5" style="stroke:#444444;stroke-width:0.5;" width="265.4067" x="76.4795" y="1084.6113"/><text fill="#000000" font-family="sans-serif" font-size="13" lengthAdjust="spacing" textLength="245.4067" x="86.4795" y="1107.1797">"It's a match!" modal with intro prompt</text><rect fill="#E3F2FD" height="35.3105" rx="12.5" ry="12.5" style="stroke:#444444;stroke-width:0.5;" width="295.0566" x="61.6545" y="1139.9219"/><text fill="#000000" font-family="sans-serif" font-size="13" lengthAdjust="spacing" textLength="275.0566" x="71.6545" y="1162.4902">Open *Chat* (S5) or go to *Scheduling* (S6)</text><rect fill="#E3F2FD" height="35.3105" rx="12.5" ry="12.5" style="stroke:#444444;stroke-width:0.5;" width="306.3618" x="56.002" y="1195.2324"/><text fill="#000000" font-family="sans-serif" font-size="13" lengthAdjust="spacing" textLength="286.3618" x="66.002" y="1217.8008">Send push/email notifications to both parties</text><rect fill="none" height="249.7305" style="stroke:#000000;stroke-width:1.5;" width="365.7236" x="26.321" y="1252.543"/><path d="M160.407,1252.543 L160.407,1262.0313 L150.407,1272.0313 L26.321,1272.0313" fill="none" style="stroke:#000000;stroke-width:1.5;"/><text fill="#000000" font-family="sans-serif" font-size="14" lengthAdjust="spacing" textLength="124.0859" x="29.321" y="1267.0781">S5 - Chat &amp; Safety</text><rect fill="#E3F2FD" height="35.3105" rx="12.5" ry="12.5" style="stroke:#444444;stroke-width:0.5;" width="243.2661" x="87.5498" y="1289.0313"/><text fill="#000000" font-family="sans-serif" font-size="13" lengthAdjust="spacing" textLength="223.2661" x="97.5498" y="1311.5996">Exchange messages with templates</text><rect fill="#E3F2FD" height="35.3105" rx="12.5" ry="12.5" style="stroke:#444444;stroke-width:0.5;" width="198.0962" x="110.1348" y="1344.3418"/><text fill="#000000" font-family="sans-serif" font-size="13" lengthAdjust="spacing" textLength="178.0962" x="120.1348" y="1366.9102">Share portfolio/GitHub links</text><rect fill="#E3F2FD" height="35.3105" rx="12.5" ry="12.5" style="stroke:#444444;stroke-width:0.5;" width="208.2144" x="105.0757" y="1399.6523"/><text fill="#000000" font-family="sans-serif" font-size="13" lengthAdjust="spacing" textLength="188.2144" x="115.0757" y="1422.2207">Block or report user if needed</text><rect fill="#E3F2FD" height="35.3105" rx="12.5" ry="12.5" style="stroke:#444444;stroke-width:0.5;" width="345.7236" x="36.321" y="1454.9629"/><text fill="#000000" font-family="sans-serif" font-size="13" lengthAdjust="spacing" textLength="325.7236" x="46.321" y="1477.5313">From chat &#8594; suggest interview &#8594; *Scheduling* (S6)</text><rect fill="none" height="249.7305" style="stroke:#000000;stroke-width:1.5;" width="315.4438" x="51.4609" y="1512.2734"/><path d="M241.957,1512.2734 L241.957,1521.7617 L231.957,1531.7617 L51.4609,1531.7617" fill="none" style="stroke:#000000;stroke-width:1.5;"/><text fill="#000000" font-family="sans-serif" font-size="14" lengthAdjust="spacing" textLength="180.4961" x="54.4609" y="1526.8086">S6 - Scheduling Interviews</text><rect fill="#E3F2FD" height="35.3105" rx="12.5" ry="12.5" style="stroke:#444444;stroke-width:0.5;" width="256.8311" x="80.7673" y="1548.7617"/><text fill="#000000" font-family="sans-serif" font-size="13" lengthAdjust="spacing" textLength="236.8311" x="90.7673" y="1571.3301">Propose or accept recruiter time slots</text><rect fill="#E3F2FD" height="35.3105" rx="12.5" ry="12.5" style="stroke:#444444;stroke-width:0.5;" width="288.417" x="64.9744" y="1604.0723"/><text fill="#000000" font-family="sans-serif" font-size="13" lengthAdjust="spacing" textLength="268.417" x="74.9744" y="1626.6406">Recruiter confirms &#8594; calendar invites (ICS)</text><rect fill="#E3F2FD" height="35.3105" rx="12.5" ry="12.5" style="stroke:#444444;stroke-width:0.5;" width="270.7705" x="73.7976" y="1659.3828"/><text fill="#000000" font-family="sans-serif" font-size="13" lengthAdjust="spacing" textLength="250.7705" x="83.7976" y="1681.9512">Automated reminders (24h / 1h before)</text><rect fill="#E3F2FD" height="35.3105" rx="12.5" ry="12.5" style="stroke:#444444;stroke-width:0.5;" width="295.4438" x="61.4609" y="1714.6934"/><text fill="#000000" font-family="sans-serif" font-size="13" lengthAdjust="spacing" textLength="275.4438" x="71.4609" y="1737.2617">If ATS connected &#8594; create interview in Sys2</text><rect fill="none" height="194.4199" style="stroke:#000000;stroke-width:1.5;" width="373.4614" x="22.4521" y="1772.0039"/><path d="M160.2705,1772.0039 L160.2705,1781.4922 L150.2705,1791.4922 L22.4521,1791.4922" fill="none" style="stroke:#000000;stroke-width:1.5;"/><text fill="#000000" font-family="sans-serif" font-size="14" lengthAdjust="spacing" textLength="127.8184" x="25.4521" y="1786.5391">S7 - Events &amp; Fairs</text><rect fill="#E3F2FD" height="35.3105" rx="12.5" ry="12.5" style="stroke:#444444;stroke-width:0.5;" width="273.4365" x="72.4646" y="1808.4922"/><text fill="#000000" font-family="sans-serif" font-size="13" lengthAdjust="spacing" textLength="253.4365" x="82.4646" y="1831.0605">Followed companies show *Events* feed</text><rect fill="#E3F2FD" height="35.3105" rx="12.5" ry="12.5" style="stroke:#444444;stroke-width:0.5;" width="270.3389" x="74.0134" y="1863.8027"/><text fill="#000000" font-family="sans-serif" font-size="13" lengthAdjust="spacing" textLength="250.3389" x="84.0134" y="1886.3711">View, RSVP &#8594; reminders + QR check-in</text><rect fill="#E3F2FD" height="35.3105" rx="12.5" ry="12.5" style="stroke:#444444;stroke-width:0.5;" width="353.4614" x="32.4521" y="1919.1133"/><text fill="#000000" font-family="sans-serif" font-size="13" lengthAdjust="spacing" textLength="333.4614" x="42.4521" y="1941.6816">After event &#8594; swipe on companies or leave feedback</text><rect fill="none" height="249.7305" style="stroke:#000000;stroke-width:1.5;" width="356.1768" x="31.0945" y="1976.4238"/><path d="M230.6072,1976.4238 L230.6072,1985.9121 L220.6072,1995.9121 L31.0945,1995.9121" fill="none" style="stroke:#000000;stroke-width:1.5;"/><text fill="#000000" font-family="sans-serif" font-size="14" lengthAdjust="spacing" textLength="189.5127" x="34.0945" y="1990.959">S8 - Notifications &amp; Nudges</text><rect fill="#E3F2FD" height="35.3105" rx="12.5" ry="12.5" style="stroke:#444444;stroke-width:0.5;" width="203.7646" x="107.3005" y="2012.9121"/><text fill="#000000" font-family="sans-serif" font-size="13" lengthAdjust="spacing" textLength="183.7646" x="117.3005" y="2035.4805">New match &#8594; open chat CTA</text><rect fill="#E3F2FD" height="35.3105" rx="12.5" ry="12.5" style="stroke:#444444;stroke-width:0.5;" width="296.7959" x="60.7849" y="2068.2227"/><text fill="#000000" font-family="sans-serif" font-size="13" lengthAdjust="spacing" textLength="276.7959" x="70.7849" y="2090.791">Recruiter viewed profile &#8594; suggest greeting</text><rect fill="#E3F2FD" height="35.3105" rx="12.5" ry="12.5" style="stroke:#444444;stroke-width:0.5;" width="255.8535" x="81.2561" y="2123.5332"/><text fill="#000000" font-family="sans-serif" font-size="13" lengthAdjust="spacing" textLength="235.8535" x="91.2561" y="2146.1016">New events from followed companies</text><rect fill="#E3F2FD" height="35.3105" rx="12.5" ry="12.5" style="stroke:#444444;stroke-width:0.5;" width="336.1768" x="41.0945" y="2178.8438"/><text fill="#000000" font-family="sans-serif" font-size="13" lengthAdjust="spacing" textLength="316.1768" x="51.0945" y="2201.4121">Weekly digest: matches, replies, suggested events</text><rect fill="none" height="249.7305" style="stroke:#000000;stroke-width:1.5;" width="356.1831" x="31.0913" y="2236.1543"/><path d="M218.0122,2236.1543 L218.0122,2245.6426 L208.0122,2255.6426 L31.0913,2255.6426" fill="none" style="stroke:#000000;stroke-width:1.5;"/><text fill="#000000" font-family="sans-serif" font-size="14" lengthAdjust="spacing" textLength="176.9209" x="34.0913" y="2250.6895">S9 - Post-Match Outcome</text><rect fill="#E3F2FD" height="35.3105" rx="12.5" ry="12.5" style="stroke:#444444;stroke-width:0.5;" width="308.1074" x="55.1292" y="2272.6426"/><text fill="#000000" font-family="sans-serif" font-size="13" lengthAdjust="spacing" textLength="288.1074" x="65.1292" y="2295.2109">Recruiter updates stage (screen, onsite, offer)</text><rect fill="#E3F2FD" height="35.3105" rx="12.5" ry="12.5" style="stroke:#444444;stroke-width:0.5;" width="196.9346" x="110.7156" y="2327.9531"/><text fill="#000000" font-family="sans-serif" font-size="13" lengthAdjust="spacing" textLength="176.9346" x="120.7156" y="2350.5215">Student sees status updates</text><rect fill="#E3F2FD" height="35.3105" rx="12.5" ry="12.5" style="stroke:#444444;stroke-width:0.5;" width="336.1831" x="41.0913" y="2383.2637"/><text fill="#000000" font-family="sans-serif" font-size="13" lengthAdjust="spacing" textLength="316.1831" x="51.0913" y="2405.832">No reply after X days &#8594; send nudge or auto-close</text><rect fill="#E3F2FD" height="35.3105" rx="12.5" ry="12.5" style="stroke:#444444;stroke-width:0.5;" width="322.999" x="47.6833" y="2438.5742"/><text fill="#000000" font-family="sans-serif" font-size="13" lengthAdjust="spacing" textLength="302.999" x="57.6833" y="2461.1426">Student may withdraw interest (optional reason)</text><ellipse cx="209.1829" cy="2516.8848" fill="none" rx="11" ry="11" style="stroke:#222222;stroke-width:1;"/><ellipse cx="209.1829" cy="2516.8848" fill="#222222" rx="6" ry="6" style="stroke:#222222;stroke-width:1;"/><line style="stroke:#555555;stroke-width:1.2;" x1="209.1829" x2="209.1829" y1="67.4883" y2="87.4883"/><polygon fill="#555555" points="205.1829,77.4883,209.1829,87.4883,213.1829,77.4883,209.1829,81.4883" style="stroke:#555555;stroke-width:1;"/><line style="stroke:#555555;stroke-width:1.2;" x1="209.1829" x2="209.1829" y1="122.7988" y2="142.7988"/><polygon fill="#555555" points="205.1829,132.7988,209.1829,142.7988,213.1829,132.7988,209.1829,136.7988" style="stroke:#555555;stroke-width:1;"/><line style="stroke:#555555;stroke-width:1.2;" x1="209.1829" x2="209.1829" y1="178.1094" y2="198.1094"/><polygon fill="#555555" points="205.1829,188.1094,209.1829,198.1094,213.1829,188.1094,209.1829,192.1094" style="stroke:#555555;stroke-width:1;"/><line style="stroke:#555555;stroke-width:1.2;" x1="209.1829" x2="209.1829" y1="233.4199" y2="253.4199"/><polygon fill="#555555" points="205.1829,243.4199,209.1829,253.4199,213.1829,243.4199,209.1829,247.4199" style="stroke:#555555;stroke-width:1;"/><line style="stroke:#555555;stroke-width:1.2;" x1="209.1829" x2="209.1829" y1="288.7305" y2="308.7305"/><polygon fill="#555555" points="205.1829,298.7305,209.1829,308.7305,213.1829,298.7305,209.1829,302.7305" style="stroke:#555555;stroke-width:1;"/><line style="stroke:#555555;stroke-width:1.2;" x1="209.1829" x2="209.1829" y1="425.8398" y2="445.8398"/><polygon fill="#555555" points="205.1829,435.8398,209.1829,445.8398,213.1829,435.8398,209.1829,439.8398" style="stroke:#555555;stroke-width:1;"/><line style="stroke:#555555;stroke-width:1.2;" x1="209.1829" x2="209.1829" y1="481.1504" y2="501.1504"/><polygon fill="#555555" points="205.1829,491.1504,209.1829,501.1504,213.1829,491.1504,209.1829,495.1504" style="stroke:#555555;stroke-width:1;"/><line style="stroke:#555555;stroke-width:1.2;" x1="209.1829" x2="209.1829" y1="536.4609" y2="556.4609"/><polygon fill="#555555" points="205.1829,546.4609,209.1829,556.4609,213.1829,546.4609,209.1829,550.4609" style="stroke:#555555;stroke-width:1;"/><line style="stroke:#555555;stroke-width:1.2;" x1="209.1829" x2="209.1829" y1="591.7715" y2="611.7715"/><polygon fill="#555555" points="205.1829,601.7715,209.1829,611.7715,213.1829,601.7715,209.1829,605.7715" style="stroke:#555555;stroke-width:1;"/><line style="stroke:#555555;stroke-width:1.2;" x1="209.1829" x2="209.1829" y1="647.082" y2="667.082"/><polygon fill="#555555" points="205.1829,657.082,209.1829,667.082,213.1829,657.082,209.1829,661.082" style="stroke:#555555;stroke-width:1;"/><line style="stroke:#555555;stroke-width:1.2;" x1="209.1829" x2="209.1829" y1="344.041" y2="390.5293"/><polygon fill="#555555" points="205.1829,380.5293,209.1829,390.5293,213.1829,380.5293,209.1829,384.5293" style="stroke:#555555;stroke-width:1;"/><line style="stroke:#555555;stroke-width:1.2;" x1="209.1829" x2="209.1829" y1="796.1914" y2="816.1914"/><polygon fill="#555555" points="205.1829,806.1914,209.1829,816.1914,213.1829,806.1914,209.1829,810.1914" style="stroke:#555555;stroke-width:1;"/><line style="stroke:#555555;stroke-width:1.2;" x1="209.1829" x2="209.1829" y1="851.502" y2="871.502"/><polygon fill="#555555" points="205.1829,861.502,209.1829,871.502,213.1829,861.502,209.1829,865.502" style="stroke:#555555;stroke-width:1;"/><line style="stroke:#555555;stroke-width:1.2;" x1="134.0872" x2="102.6199" y1="938.8125" y2="938.8125"/><line style="stroke:#555555;stroke-width:1.2;" x1="102.6199" x2="102.6199" y1="938.8125" y2="960.8125"/><polygon fill="#555555" points="98.6199,950.8125,102.6199,960.8125,106.6199,950.8125,102.6199,954.8125" style="stroke:#555555;stroke-width:1;"/><line style="stroke:#555555;stroke-width:1.2;" x1="284.2786" x2="315.7458" y1="938.8125" y2="938.8125"/><line style="stroke:#555555;stroke-width:1.2;" x1="315.7458" x2="315.7458" y1="938.8125" y2="960.8125"/><polygon fill="#555555" points="311.7458,950.8125,315.7458,960.8125,319.7458,950.8125,315.7458,954.8125" style="stroke:#555555;stroke-width:1;"/><line style="stroke:#555555;stroke-width:1.2;" x1="102.6199" x2="102.6199" y1="996.123" y2="1014.123"/><line style="stroke:#555555;stroke-width:1.2;" x1="102.6199" x2="197.1829" y1="1014.123" y2="1014.123"/><polygon fill="#555555" points="187.1829,1010.123,197.1829,1014.123,187.1829,1018.123,191.1829,1014.123" style="stroke:#555555;stroke-width:1;"/><line style="stroke:#555555;stroke-width:1.2;" x1="315.7458" x2="315.7458" y1="996.123" y2="1014.123"/><line style="stroke:#555555;stroke-width:1.2;" x1="315.7458" x2="221.1829" y1="1014.123" y2="1014.123"/><polygon fill="#555555" points="231.1829,1010.123,221.1829,1014.123,231.1829,1018.123,227.1829,1014.123" style="stroke:#555555;stroke-width:1;"/><line style="stroke:#555555;stroke-width:1.2;" x1="209.1829" x2="209.1829" y1="906.8125" y2="926.8125"/><polygon fill="#555555" points="205.1829,916.8125,209.1829,926.8125,213.1829,916.8125,209.1829,920.8125" style="stroke:#555555;stroke-width:1;"/><line style="stroke:#555555;stroke-width:1.2;" x1="209.1829" x2="209.1829" y1="702.3926" y2="760.8809"/><polygon fill="#555555" points="205.1829,750.8809,209.1829,760.8809,213.1829,750.8809,209.1829,754.8809" style="stroke:#555555;stroke-width:1;"/><line style="stroke:#555555;stroke-width:1.2;" x1="209.1829" x2="209.1829" y1="1119.9219" y2="1139.9219"/><polygon fill="#555555" points="205.1829,1129.9219,209.1829,1139.9219,213.1829,1129.9219,209.1829,1133.9219" style="stroke:#555555;stroke-width:1;"/><line style="stroke:#555555;stroke-width:1.2;" x1="209.1829" x2="209.1829" y1="1175.2324" y2="1195.2324"/><polygon fill="#555555" points="205.1829,1185.2324,209.1829,1195.2324,213.1829,1185.2324,209.1829,1189.2324" style="stroke:#555555;stroke-width:1;"/><line style="stroke:#555555;stroke-width:1.2;" x1="209.1829" x2="209.1829" y1="1026.123" y2="1084.6113"/><polygon fill="#555555" points="205.1829,1074.6113,209.1829,1084.6113,213.1829,1074.6113,209.1829,1078.6113" style="stroke:#555555;stroke-width:1;"/><line style="stroke:#555555;stroke-width:1.2;" x1="209.1829" x2="209.1829" y1="1324.3418" y2="1344.3418"/><polygon fill="#555555" points="205.1829,1334.3418,209.1829,1344.3418,213.1829,1334.3418,209.1829,1338.3418" style="stroke:#555555;stroke-width:1;"/><line style="stroke:#555555;stroke-width:1.2;" x1="209.1829" x2="209.1829" y1="1379.6523" y2="1399.6523"/><polygon fill="#555555" points="205.1829,1389.6523,209.1829,1399.6523,213.1829,1389.6523,209.1829,1393.6523" style="stroke:#555555;stroke-width:1;"/><line style="stroke:#555555;stroke-width:1.2;" x1="209.1829" x2="209.1829" y1="1434.9629" y2="1454.9629"/><polygon fill="#555555" points="205.1829,1444.9629,209.1829,1454.9629,213.1829,1444.9629,209.1829,1448.9629" style="stroke:#555555;stroke-width:1;"/><line style="stroke:#555555;stroke-width:1.2;" x1="209.1829" x2="209.1829" y1="1230.543" y2="1289.0313"/><polygon fill="#555555" points="205.1829,1279.0313,209.1829,1289.0313,213.1829,1279.0313,209.1829,1283.0313" style="stroke:#555555;stroke-width:1;"/><line style="stroke:#555555;stroke-width:1.2;" x1="209.1829" x2="209.1829" y1="1584.0723" y2="1604.0723"/><polygon fill="#555555" points="205.1829,1594.0723,209.1829,1604.0723,213.1829,1594.0723,209.1829,1598.0723" style="stroke:#555555;stroke-width:1;"/><line style="stroke:#555555;stroke-width:1.2;" x1="209.1829" x2="209.1829" y1="1639.3828" y2="1659.3828"/><polygon fill="#555555" points="205.1829,1649.3828,209.1829,1659.3828,213.1829,1649.3828,209.1829,1653.3828" style="stroke:#555555;stroke-width:1;"/><line style="stroke:#555555;stroke-width:1.2;" x1="209.1829" x2="209.1829" y1="1694.6934" y2="1714.6934"/><polygon fill="#555555" points="205.1829,1704.6934,209.1829,1714.6934,213.1829,1704.6934,209.1829,1708.6934" style="stroke:#555555;stroke-width:1;"/><line style="stroke:#555555;stroke-width:1.2;" x1="209.1829" x2="209.1829" y1="1490.2734" y2="1548.7617"/><polygon fill="#555555" points="205.1829,1538.7617,209.1829,1548.7617,213.1829,1538.7617,209.1829,1542.7617" style="stroke:#555555;stroke-width:1;"/><line style="stroke:#555555;stroke-width:1.2;" x1="209.1829" x2="209.1829" y1="1843.8027" y2="1863.8027"/><polygon fill="#555555" points="205.1829,1853.8027,209.1829,1863.8027,213.1829,1853.8027,209.1829,1857.8027" style="stroke:#555555;stroke-width:1;"/><line style="stroke:#555555;stroke-width:1.2;" x1="209.1829" x2="209.1829" y1="1899.1133" y2="1919.1133"/><polygon fill="#555555" points="205.1829,1909.1133,209.1829,1919.1133,213.1829,1909.1133,209.1829,1913.1133" style="stroke:#555555;stroke-width:1;"/><line style="stroke:#555555;stroke-width:1.2;" x1="209.1829" x2="209.1829" y1="1750.0039" y2="1808.4922"/><polygon fill="#555555" points="205.1829,1798.4922,209.1829,1808.4922,213.1829,1798.4922,209.1829,1802.4922" style="stroke:#555555;stroke-width:1;"/><line style="stroke:#555555;stroke-width:1.2;" x1="209.1829" x2="209.1829" y1="2048.2227" y2="2068.2227"/><polygon fill="#555555" points="205.1829,2058.2227,209.1829,2068.2227,213.1829,2058.2227,209.1829,2062.2227" style="stroke:#555555;stroke-width:1;"/><line style="stroke:#555555;stroke-width:1.2;" x1="209.1829" x2="209.1829" y1="2103.5332" y2="2123.5332"/><polygon fill="#555555" points="205.1829,2113.5332,209.1829,2123.5332,213.1829,2113.5332,209.1829,2117.5332" style="stroke:#555555;stroke-width:1;"/><line style="stroke:#555555;stroke-width:1.2;" x1="209.1829" x2="209.1829" y1="2158.8438" y2="2178.8438"/><polygon fill="#555555" points="205.1829,2168.8438,209.1829,2178.8438,213.1829,2168.8438,209.1829,2172.8438" style="stroke:#555555;stroke-width:1;"/><line style="stroke:#555555;stroke-width:1.2;" x1="209.1829" x2="209.1829" y1="1954.4238" y2="2012.9121"/><polygon fill="#555555" points="205.1829,2002.9121,209.1829,2012.9121,213.1829,2002.9121,209.1829,2006.9121" style="stroke:#555555;stroke-width:1;"/><line style="stroke:#555555;stroke-width:1.2;" x1="209.1829" x2="209.1829" y1="2307.9531" y2="2327.9531"/><polygon fill="#555555" points="205.1829,2317.9531,209.1829,2327.9531,213.1829,2317.9531,209.1829,2321.9531" style="stroke:#555555;stroke-width:1;"/><line style="stroke:#555555;stroke-width:1.2;" x1="209.1829" x2="209.1829" y1="2363.2637" y2="2383.2637"/><polygon fill="#555555" points="205.1829,2373.2637,209.1829,2383.2637,213.1829,2373.2637,209.1829,2377.2637" style="stroke:#555555;stroke-width:1;"/><line style="stroke:#555555;stroke-width:1.2;" x1="209.1829" x2="209.1829" y1="2418.5742" y2="2438.5742"/><polygon fill="#555555" points="205.1829,2428.5742,209.1829,2438.5742,213.1829,2428.5742,209.1829,2432.5742" style="stroke:#555555;stroke-width:1;"/><line style="stroke:#555555;stroke-width:1.2;" x1="209.1829" x2="209.1829" y1="2214.1543" y2="2272.6426"/><polygon fill="#555555" points="205.1829,2262.6426,209.1829,2272.6426,213.1829,2262.6426,209.1829,2266.6426" style="stroke:#555555;stroke-width:1;"/><line style="stroke:#555555;stroke-width:1.2;" x1="209.1829" x2="209.1829" y1="2473.8848" y2="2505.8848"/><polygon fill="#555555" points="205.1829,2495.8848,209.1829,2505.8848,213.1829,2495.8848,209.1829,2499.8848" style="stroke:#555555;stroke-width:1;"/><!--SRC=[PLRRSjis47tNLspTcLHIhNfyIThOq-auIfHwfhdKTDE-miHIX4K1702KodRosW_e9_PBUXQW8b_u8edOwzbp5eecDan5x3JRI8l6RGEDY-DPyN92CxenLhEV5R67qJiLozhO9LssxMWKLiQsogirtQfojVIkithk6kVfwqLwxbc4Mcct5TTADO7ldQWoces9FVqz8dhrED2RqyN9uZLEBhrts-7by_I8kVCeRdXxbXwyNJWR2_CNq_7fwFEzJ2d4JMtAbUKGwFYx4_GGbO-ZqValghDbJQfjwRz__gNfMuwKpbXFBqRdXLbQwbeQXx9shY5UAzCGiXR5XqdosB0tLPyFu327MM3o3gZzIDC1NGbrpHl3Mtg6najk8qNswq3AQcgzsQYolv1gyDDPcdxqhZ8o7OvTEyLOJYONen7QYIOQ61mK9vZH0oiQl-wjMfkIFZeVAzSODpb8u9w_iKY6OGLJOiHhTUVy8IszqjIpmjV6bIg5RJrN0PdWSwar0SAc2OTan9z3n5VDmNZMTETkAVOjPziO5K1SipQAnh3sZZP6iqDeOrTmQxsxup8EiNzh6uVa2DcjcSQkbUIgoOU5J61hMaxL8AyjEKXKtONe3IEQvrt5XyWJrE2eDfn6idGK7KrVcr0wZASN_4vXy_aXWgT0y8iDvb8WAOWwOFP9XbMwTQjiVvJ6MIglGywKolDcMKSCUOSEwmjgk99NhGhXWg9ggG9ND4UG8xj-67fjUXmrqDoG0tqbMzw0BidKL3H-ryLEDJdJB87oquHYpPR6FOS9h11oxbb5fcaIgVHwbl1Wo8t6rWrMr-28jmAC_j8pyYbz1rW9D48JAIzRRQh7M9q1gnGVE2sCXySSOeE41xGEhk8t83EjnUQh0rexZRgt9jQKwG02hDiuG83wf_DQHIds-KJA64PMb3Nh3fnPoj6B7I548rseZxBwh8kcCdd-GTnk7TAaQZaycV9pL2wvPC2gujZlDF5dMIkxPB0s1BK4_AdQoEks0Pp3e6lbmSETdexUclXpTvj9dGnUWOWhQS2pM54N83HCpZ9hy45C5kYSIgb0k1cw9NB5J9gq4DBQUThuepPUe8sz4LtjtCFG3bP1Auj7HfhtY-VITqQ47mrK5XgNUGKcx0vAPoiZMqXgA5K3e1NAjrZB8hchUJ7iWYuwJ9P5ikjqB-3qvAoc8pgkwPP1NCwMLnLTtXGIs4BkS4YHCq7tBHjBHHzEdZJvFPfyamGWD5FWsT3T8aa5uVPY2JMqCytMKwfuG5jaUqZNnQUFAVM-tc_frskCWSlLpDZSLIKO9C7bqIHLev1z4g3PiAmLYI-NtPEIVq39xnyGyXczxpHcF9J-7lqcLQGSJhYVo32_kNmq3O66vJR8I_q-MvQUEMBk5xk8UKrG9Togde2Jp7vdNc7BQ2CHpdCDUNcsJTgYGt0uxfREezvUoXNZGfnbvN_e8ZBmqDU-xgxL8XYvDY4dt9Ge5eiPME0OdnMM-A3auRz6u6mUkx3ppfsvL5rFAetc3zAgp-GCiWEiu9eO3ZxEoWPyVn1shVeaOktLzijMtbylYAs2irbR8RhsVm00]--></g></svg>